<?xml version="1.0" encoding="utf-8" standalone="no"?>
<!DOCTYPE svg PUBLIC "-//W3C//DTD SVG 1.1//EN"
  "http://www.w3.org/Graphics/SVG/1.1/DTD/svg11.dtd">
<!-- Created with matplotlib (http://matplotlib.org/) -->
<svg height="144pt" version="1.1" viewBox="0 0 216 144" width="216pt" xmlns="http://www.w3.org/2000/svg" xmlns:xlink="http://www.w3.org/1999/xlink">
 <defs>
  <style type="text/css">
*{stroke-linecap:butt;stroke-linejoin:round;}
  </style>
 </defs>
 <g id="figure_1">
  <g id="patch_1">
   <path d="M 0 144 
L 216 144 
L 216 0 
L 0 0 
z
" style="fill:none;"/>
  </g>
  <g id="axes_1">
   <g id="patch_2">
    <path d="M 31.08375 108.76 
L 179.025625 108.76 
L 179.025625 22.74875 
L 31.08375 22.74875 
z
" style="fill:none;"/>
   </g>
   <g id="line2d_1">
    <path clip-path="url(#p3a265d2b01)" d="M 37.808381 26.952463 
L 38.723296 31.010726 
L 39.638212 30.505203 
L 40.553128 28.954035 
L 43.297875 31.002884 
L 44.212791 31.474384 
L 45.127707 29.012092 
L 46.042622 33.810423 
L 46.957538 32.295232 
L 47.872454 30.321473 
L 48.78737 33.935653 
L 49.702285 33.498505 
L 50.617201 29.918931 
L 51.532117 27.645994 
L 52.447033 27.398898 
L 53.361948 28.647313 
L 54.276864 27.649355 
L 55.19178 33.091038 
L 56.106695 31.701749 
L 57.021611 34.010589 
L 57.936527 24.672478 
L 58.851443 36.809559 
L 59.766358 32.997544 
L 60.681274 36.837372 
L 61.59619 31.099987 
L 62.511106 32.089795 
L 63.426021 30.101493 
L 64.340937 35.821458 
L 65.255853 28.298703 
L 66.170769 30.821428 
L 67.085684 27.058751 
L 68.915516 29.638905 
L 69.830432 27.576327 
L 70.745347 36.2297 
L 71.660263 33.946266 
L 72.575179 34.031584 
L 73.490095 39.789786 
L 74.40501 36.894488 
L 75.319926 31.421998 
L 76.234842 34.030303 
L 77.149757 35.004405 
L 78.064673 34.542294 
L 78.979589 29.775357 
L 79.894505 31.904503 
L 80.80942 34.961451 
L 81.724336 31.135384 
L 82.639252 30.463281 
L 83.554168 30.410172 
L 84.469083 31.353963 
L 85.383999 29.215233 
L 86.298915 30.38453 
L 87.213831 35.121565 
L 88.128746 32.961649 
L 89.043662 30.110654 
L 89.958578 29.08087 
L 90.873494 34.339732 
L 91.788409 33.680854 
L 92.703325 38.284618 
L 93.618241 32.628082 
L 94.533157 36.224087 
L 95.448072 32.776939 
L 96.362988 36.703115 
L 97.277904 36.207269 
L 98.192819 38.637575 
L 99.107735 39.014201 
L 100.022651 33.344033 
L 100.937567 32.309553 
L 101.852482 31.580782 
L 102.767398 34.201205 
L 103.682314 30.365194 
L 104.59723 35.760629 
L 105.512145 33.921898 
L 106.427061 36.711088 
L 107.341977 29.552629 
L 108.256893 37.783266 
L 109.171808 36.911663 
L 110.086724 37.751168 
L 111.00164 34.344655 
L 111.916556 40.108409 
L 112.831471 36.413516 
L 113.746387 40.376758 
L 114.661303 35.628167 
L 115.576218 34.560711 
L 116.491134 37.813561 
L 117.40605 36.725386 
L 118.320966 41.712781 
L 119.235881 39.202838 
L 120.150797 44.352542 
L 121.065713 46.603436 
L 121.980629 40.186613 
L 122.895544 41.545876 
L 123.81046 35.700141 
L 124.725376 39.590721 
L 125.640292 38.059387 
L 126.555207 41.313717 
L 127.470123 39.231575 
L 128.385039 42.485958 
L 129.299955 41.633122 
L 130.21487 44.102526 
L 131.129786 43.997313 
L 132.044702 41.58893 
L 133.874533 46.979113 
L 134.789449 48.989595 
L 135.704365 44.20579 
L 136.61928 43.955361 
L 137.534196 44.290163 
L 138.449112 42.986373 
L 139.364028 48.070031 
L 140.278943 47.057965 
L 141.193859 43.479827 
L 142.108775 48.823907 
L 143.023691 45.28165 
L 143.938606 49.193018 
L 144.853522 41.315195 
L 145.768438 39.276363 
L 146.683354 44.020498 
L 147.598269 51.383565 
L 148.513185 42.573071 
L 149.428101 50.739487 
L 150.343017 48.093851 
L 151.257932 48.952748 
L 152.172848 55.173711 
L 153.087764 54.051613 
L 154.00268 56.942073 
L 154.917595 54.861542 
L 155.832511 51.145166 
L 156.747427 57.538873 
L 157.662342 55.049212 
L 158.577258 56.682039 
L 159.492174 52.457098 
L 160.40709 58.768293 
L 161.322005 56.467352 
L 162.236921 53.234298 
L 163.151837 61.745926 
L 164.066753 61.549491 
L 164.981668 60.28142 
L 165.896584 59.816218 
L 166.8115 60.499256 
L 167.726416 59.634342 
L 168.641331 57.781491 
L 170.471163 63.147038 
L 171.386079 60.722365 
L 172.300994 61.385257 
L 172.300994 61.385257 
" style="fill:none;"/>
    <defs>
     <path d="M 0 3 
C 0.795609 3 1.55874 2.683901 2.12132 2.12132 
C 2.683901 1.55874 3 0.795609 3 0 
C 3 -0.795609 2.683901 -1.55874 2.12132 -2.12132 
C 1.55874 -2.683901 0.795609 -3 0 -3 
C -0.795609 -3 -1.55874 -2.683901 -2.12132 -2.12132 
C -2.683901 -1.55874 -3 -0.795609 -3 0 
C -3 0.795609 -2.683901 1.55874 -2.12132 2.12132 
C -1.55874 2.683901 -0.795609 3 0 3 
z
" id="mc1d3e936c0"/>
    </defs>
    <g clip-path="url(#p3a265d2b01)">
     <use style="fill:#d62728;" x="37.808381" xlink:href="#mc1d3e936c0" y="26.952463"/>
     <use style="fill:#d62728;" x="38.723296" xlink:href="#mc1d3e936c0" y="31.010726"/>
     <use style="fill:#d62728;" x="39.638212" xlink:href="#mc1d3e936c0" y="30.505203"/>
     <use style="fill:#d62728;" x="40.553128" xlink:href="#mc1d3e936c0" y="28.954035"/>
     <use style="fill:#d62728;" x="41.468044" xlink:href="#mc1d3e936c0" y="29.66522"/>
     <use style="fill:#d62728;" x="42.382959" xlink:href="#mc1d3e936c0" y="30.497013"/>
     <use style="fill:#d62728;" x="43.297875" xlink:href="#mc1d3e936c0" y="31.002884"/>
     <use style="fill:#d62728;" x="44.212791" xlink:href="#mc1d3e936c0" y="31.474384"/>
     <use style="fill:#d62728;" x="45.127707" xlink:href="#mc1d3e936c0" y="29.012092"/>
     <use style="fill:#d62728;" x="46.042622" xlink:href="#mc1d3e936c0" y="33.810423"/>
     <use style="fill:#d62728;" x="46.957538" xlink:href="#mc1d3e936c0" y="32.295232"/>
     <use style="fill:#d62728;" x="47.872454" xlink:href="#mc1d3e936c0" y="30.321473"/>
     <use style="fill:#d62728;" x="48.78737" xlink:href="#mc1d3e936c0" y="33.935653"/>
     <use style="fill:#d62728;" x="49.702285" xlink:href="#mc1d3e936c0" y="33.498505"/>
     <use style="fill:#d62728;" x="50.617201" xlink:href="#mc1d3e936c0" y="29.918931"/>
     <use style="fill:#d62728;" x="51.532117" xlink:href="#mc1d3e936c0" y="27.645994"/>
     <use style="fill:#d62728;" x="52.447033" xlink:href="#mc1d3e936c0" y="27.398898"/>
     <use style="fill:#d62728;" x="53.361948" xlink:href="#mc1d3e936c0" y="28.647313"/>
     <use style="fill:#d62728;" x="54.276864" xlink:href="#mc1d3e936c0" y="27.649355"/>
     <use style="fill:#d62728;" x="55.19178" xlink:href="#mc1d3e936c0" y="33.091038"/>
     <use style="fill:#d62728;" x="56.106695" xlink:href="#mc1d3e936c0" y="31.701749"/>
     <use style="fill:#d62728;" x="57.021611" xlink:href="#mc1d3e936c0" y="34.010589"/>
     <use style="fill:#d62728;" x="57.936527" xlink:href="#mc1d3e936c0" y="24.672478"/>
     <use style="fill:#d62728;" x="58.851443" xlink:href="#mc1d3e936c0" y="36.809559"/>
     <use style="fill:#d62728;" x="59.766358" xlink:href="#mc1d3e936c0" y="32.997544"/>
     <use style="fill:#d62728;" x="60.681274" xlink:href="#mc1d3e936c0" y="36.837372"/>
     <use style="fill:#d62728;" x="61.59619" xlink:href="#mc1d3e936c0" y="31.099987"/>
     <use style="fill:#d62728;" x="62.511106" xlink:href="#mc1d3e936c0" y="32.089795"/>
     <use style="fill:#d62728;" x="63.426021" xlink:href="#mc1d3e936c0" y="30.101493"/>
     <use style="fill:#d62728;" x="64.340937" xlink:href="#mc1d3e936c0" y="35.821458"/>
     <use style="fill:#d62728;" x="65.255853" xlink:href="#mc1d3e936c0" y="28.298703"/>
     <use style="fill:#d62728;" x="66.170769" xlink:href="#mc1d3e936c0" y="30.821428"/>
     <use style="fill:#d62728;" x="67.085684" xlink:href="#mc1d3e936c0" y="27.058751"/>
     <use style="fill:#d62728;" x="68.0006" xlink:href="#mc1d3e936c0" y="28.338806"/>
     <use style="fill:#d62728;" x="68.915516" xlink:href="#mc1d3e936c0" y="29.638905"/>
     <use style="fill:#d62728;" x="69.830432" xlink:href="#mc1d3e936c0" y="27.576327"/>
     <use style="fill:#d62728;" x="70.745347" xlink:href="#mc1d3e936c0" y="36.2297"/>
     <use style="fill:#d62728;" x="71.660263" xlink:href="#mc1d3e936c0" y="33.946266"/>
     <use style="fill:#d62728;" x="72.575179" xlink:href="#mc1d3e936c0" y="34.031584"/>
     <use style="fill:#d62728;" x="73.490095" xlink:href="#mc1d3e936c0" y="39.789786"/>
     <use style="fill:#d62728;" x="74.40501" xlink:href="#mc1d3e936c0" y="36.894488"/>
     <use style="fill:#d62728;" x="75.319926" xlink:href="#mc1d3e936c0" y="31.421998"/>
     <use style="fill:#d62728;" x="76.234842" xlink:href="#mc1d3e936c0" y="34.030303"/>
     <use style="fill:#d62728;" x="77.149757" xlink:href="#mc1d3e936c0" y="35.004405"/>
     <use style="fill:#d62728;" x="78.064673" xlink:href="#mc1d3e936c0" y="34.542294"/>
     <use style="fill:#d62728;" x="78.979589" xlink:href="#mc1d3e936c0" y="29.775357"/>
     <use style="fill:#d62728;" x="79.894505" xlink:href="#mc1d3e936c0" y="31.904503"/>
     <use style="fill:#d62728;" x="80.80942" xlink:href="#mc1d3e936c0" y="34.961451"/>
     <use style="fill:#d62728;" x="81.724336" xlink:href="#mc1d3e936c0" y="31.135384"/>
     <use style="fill:#d62728;" x="82.639252" xlink:href="#mc1d3e936c0" y="30.463281"/>
     <use style="fill:#d62728;" x="83.554168" xlink:href="#mc1d3e936c0" y="30.410172"/>
     <use style="fill:#d62728;" x="84.469083" xlink:href="#mc1d3e936c0" y="31.353963"/>
     <use style="fill:#d62728;" x="85.383999" xlink:href="#mc1d3e936c0" y="29.215233"/>
     <use style="fill:#d62728;" x="86.298915" xlink:href="#mc1d3e936c0" y="30.38453"/>
     <use style="fill:#d62728;" x="87.213831" xlink:href="#mc1d3e936c0" y="35.121565"/>
     <use style="fill:#d62728;" x="88.128746" xlink:href="#mc1d3e936c0" y="32.961649"/>
     <use style="fill:#d62728;" x="89.043662" xlink:href="#mc1d3e936c0" y="30.110654"/>
     <use style="fill:#d62728;" x="89.958578" xlink:href="#mc1d3e936c0" y="29.08087"/>
     <use style="fill:#d62728;" x="90.873494" xlink:href="#mc1d3e936c0" y="34.339732"/>
     <use style="fill:#d62728;" x="91.788409" xlink:href="#mc1d3e936c0" y="33.680854"/>
     <use style="fill:#d62728;" x="92.703325" xlink:href="#mc1d3e936c0" y="38.284618"/>
     <use style="fill:#d62728;" x="93.618241" xlink:href="#mc1d3e936c0" y="32.628082"/>
     <use style="fill:#d62728;" x="94.533157" xlink:href="#mc1d3e936c0" y="36.224087"/>
     <use style="fill:#d62728;" x="95.448072" xlink:href="#mc1d3e936c0" y="32.776939"/>
     <use style="fill:#d62728;" x="96.362988" xlink:href="#mc1d3e936c0" y="36.703115"/>
     <use style="fill:#d62728;" x="97.277904" xlink:href="#mc1d3e936c0" y="36.207269"/>
     <use style="fill:#d62728;" x="98.192819" xlink:href="#mc1d3e936c0" y="38.637575"/>
     <use style="fill:#d62728;" x="99.107735" xlink:href="#mc1d3e936c0" y="39.014201"/>
     <use style="fill:#d62728;" x="100.022651" xlink:href="#mc1d3e936c0" y="33.344033"/>
     <use style="fill:#d62728;" x="100.937567" xlink:href="#mc1d3e936c0" y="32.309553"/>
     <use style="fill:#d62728;" x="101.852482" xlink:href="#mc1d3e936c0" y="31.580782"/>
     <use style="fill:#d62728;" x="102.767398" xlink:href="#mc1d3e936c0" y="34.201205"/>
     <use style="fill:#d62728;" x="103.682314" xlink:href="#mc1d3e936c0" y="30.365194"/>
     <use style="fill:#d62728;" x="104.59723" xlink:href="#mc1d3e936c0" y="35.760629"/>
     <use style="fill:#d62728;" x="105.512145" xlink:href="#mc1d3e936c0" y="33.921898"/>
     <use style="fill:#d62728;" x="106.427061" xlink:href="#mc1d3e936c0" y="36.711088"/>
     <use style="fill:#d62728;" x="107.341977" xlink:href="#mc1d3e936c0" y="29.552629"/>
     <use style="fill:#d62728;" x="108.256893" xlink:href="#mc1d3e936c0" y="37.783266"/>
     <use style="fill:#d62728;" x="109.171808" xlink:href="#mc1d3e936c0" y="36.911663"/>
     <use style="fill:#d62728;" x="110.086724" xlink:href="#mc1d3e936c0" y="37.751168"/>
     <use style="fill:#d62728;" x="111.00164" xlink:href="#mc1d3e936c0" y="34.344655"/>
     <use style="fill:#d62728;" x="111.916556" xlink:href="#mc1d3e936c0" y="40.108409"/>
     <use style="fill:#d62728;" x="112.831471" xlink:href="#mc1d3e936c0" y="36.413516"/>
     <use style="fill:#d62728;" x="113.746387" xlink:href="#mc1d3e936c0" y="40.376758"/>
     <use style="fill:#d62728;" x="114.661303" xlink:href="#mc1d3e936c0" y="35.628167"/>
     <use style="fill:#d62728;" x="115.576218" xlink:href="#mc1d3e936c0" y="34.560711"/>
     <use style="fill:#d62728;" x="116.491134" xlink:href="#mc1d3e936c0" y="37.813561"/>
     <use style="fill:#d62728;" x="117.40605" xlink:href="#mc1d3e936c0" y="36.725386"/>
     <use style="fill:#d62728;" x="118.320966" xlink:href="#mc1d3e936c0" y="41.712781"/>
     <use style="fill:#d62728;" x="119.235881" xlink:href="#mc1d3e936c0" y="39.202838"/>
     <use style="fill:#d62728;" x="120.150797" xlink:href="#mc1d3e936c0" y="44.352542"/>
     <use style="fill:#d62728;" x="121.065713" xlink:href="#mc1d3e936c0" y="46.603436"/>
     <use style="fill:#d62728;" x="121.980629" xlink:href="#mc1d3e936c0" y="40.186613"/>
     <use style="fill:#d62728;" x="122.895544" xlink:href="#mc1d3e936c0" y="41.545876"/>
     <use style="fill:#d62728;" x="123.81046" xlink:href="#mc1d3e936c0" y="35.700141"/>
     <use style="fill:#d62728;" x="124.725376" xlink:href="#mc1d3e936c0" y="39.590721"/>
     <use style="fill:#d62728;" x="125.640292" xlink:href="#mc1d3e936c0" y="38.059387"/>
     <use style="fill:#d62728;" x="126.555207" xlink:href="#mc1d3e936c0" y="41.313717"/>
     <use style="fill:#d62728;" x="127.470123" xlink:href="#mc1d3e936c0" y="39.231575"/>
     <use style="fill:#d62728;" x="128.385039" xlink:href="#mc1d3e936c0" y="42.485958"/>
     <use style="fill:#d62728;" x="129.299955" xlink:href="#mc1d3e936c0" y="41.633122"/>
     <use style="fill:#d62728;" x="130.21487" xlink:href="#mc1d3e936c0" y="44.102526"/>
     <use style="fill:#d62728;" x="131.129786" xlink:href="#mc1d3e936c0" y="43.997313"/>
     <use style="fill:#d62728;" x="132.044702" xlink:href="#mc1d3e936c0" y="41.58893"/>
     <use style="fill:#d62728;" x="132.959618" xlink:href="#mc1d3e936c0" y="44.215951"/>
     <use style="fill:#d62728;" x="133.874533" xlink:href="#mc1d3e936c0" y="46.979113"/>
     <use style="fill:#d62728;" x="134.789449" xlink:href="#mc1d3e936c0" y="48.989595"/>
     <use style="fill:#d62728;" x="135.704365" xlink:href="#mc1d3e936c0" y="44.20579"/>
     <use style="fill:#d62728;" x="136.61928" xlink:href="#mc1d3e936c0" y="43.955361"/>
     <use style="fill:#d62728;" x="137.534196" xlink:href="#mc1d3e936c0" y="44.290163"/>
     <use style="fill:#d62728;" x="138.449112" xlink:href="#mc1d3e936c0" y="42.986373"/>
     <use style="fill:#d62728;" x="139.364028" xlink:href="#mc1d3e936c0" y="48.070031"/>
     <use style="fill:#d62728;" x="140.278943" xlink:href="#mc1d3e936c0" y="47.057965"/>
     <use style="fill:#d62728;" x="141.193859" xlink:href="#mc1d3e936c0" y="43.479827"/>
     <use style="fill:#d62728;" x="142.108775" xlink:href="#mc1d3e936c0" y="48.823907"/>
     <use style="fill:#d62728;" x="143.023691" xlink:href="#mc1d3e936c0" y="45.28165"/>
     <use style="fill:#d62728;" x="143.938606" xlink:href="#mc1d3e936c0" y="49.193018"/>
     <use style="fill:#d62728;" x="144.853522" xlink:href="#mc1d3e936c0" y="41.315195"/>
     <use style="fill:#d62728;" x="145.768438" xlink:href="#mc1d3e936c0" y="39.276363"/>
     <use style="fill:#d62728;" x="146.683354" xlink:href="#mc1d3e936c0" y="44.020498"/>
     <use style="fill:#d62728;" x="147.598269" xlink:href="#mc1d3e936c0" y="51.383565"/>
     <use style="fill:#d62728;" x="148.513185" xlink:href="#mc1d3e936c0" y="42.573071"/>
     <use style="fill:#d62728;" x="149.428101" xlink:href="#mc1d3e936c0" y="50.739487"/>
     <use style="fill:#d62728;" x="150.343017" xlink:href="#mc1d3e936c0" y="48.093851"/>
     <use style="fill:#d62728;" x="151.257932" xlink:href="#mc1d3e936c0" y="48.952748"/>
     <use style="fill:#d62728;" x="152.172848" xlink:href="#mc1d3e936c0" y="55.173711"/>
     <use style="fill:#d62728;" x="153.087764" xlink:href="#mc1d3e936c0" y="54.051613"/>
     <use style="fill:#d62728;" x="154.00268" xlink:href="#mc1d3e936c0" y="56.942073"/>
     <use style="fill:#d62728;" x="154.917595" xlink:href="#mc1d3e936c0" y="54.861542"/>
     <use style="fill:#d62728;" x="155.832511" xlink:href="#mc1d3e936c0" y="51.145166"/>
     <use style="fill:#d62728;" x="156.747427" xlink:href="#mc1d3e936c0" y="57.538873"/>
     <use style="fill:#d62728;" x="157.662342" xlink:href="#mc1d3e936c0" y="55.049212"/>
     <use style="fill:#d62728;" x="158.577258" xlink:href="#mc1d3e936c0" y="56.682039"/>
     <use style="fill:#d62728;" x="159.492174" xlink:href="#mc1d3e936c0" y="52.457098"/>
     <use style="fill:#d62728;" x="160.40709" xlink:href="#mc1d3e936c0" y="58.768293"/>
     <use style="fill:#d62728;" x="161.322005" xlink:href="#mc1d3e936c0" y="56.467352"/>
     <use style="fill:#d62728;" x="162.236921" xlink:href="#mc1d3e936c0" y="53.234298"/>
     <use style="fill:#d62728;" x="163.151837" xlink:href="#mc1d3e936c0" y="61.745926"/>
     <use style="fill:#d62728;" x="164.066753" xlink:href="#mc1d3e936c0" y="61.549491"/>
     <use style="fill:#d62728;" x="164.981668" xlink:href="#mc1d3e936c0" y="60.28142"/>
     <use style="fill:#d62728;" x="165.896584" xlink:href="#mc1d3e936c0" y="59.816218"/>
     <use style="fill:#d62728;" x="166.8115" xlink:href="#mc1d3e936c0" y="60.499256"/>
     <use style="fill:#d62728;" x="167.726416" xlink:href="#mc1d3e936c0" y="59.634342"/>
     <use style="fill:#d62728;" x="168.641331" xlink:href="#mc1d3e936c0" y="57.781491"/>
     <use style="fill:#d62728;" x="169.556247" xlink:href="#mc1d3e936c0" y="60.470614"/>
     <use style="fill:#d62728;" x="170.471163" xlink:href="#mc1d3e936c0" y="63.147038"/>
     <use style="fill:#d62728;" x="171.386079" xlink:href="#mc1d3e936c0" y="60.722365"/>
     <use style="fill:#d62728;" x="172.300994" xlink:href="#mc1d3e936c0" y="61.385257"/>
    </g>
   </g>
   <g id="patch_3">
    <path d="M 31.08375 108.76 
L 31.08375 22.74875 
" style="fill:none;stroke:#000000;stroke-linecap:square;stroke-linejoin:miter;"/>
   </g>
   <g id="patch_4">
    <path d="M 179.025625 108.76 
L 179.025625 22.74875 
" style="fill:none;stroke:#000000;stroke-linecap:square;stroke-linejoin:miter;"/>
   </g>
   <g id="patch_5">
    <path d="M 31.08375 108.76 
L 179.025625 108.76 
" style="fill:none;stroke:#000000;stroke-linecap:square;stroke-linejoin:miter;"/>
   </g>
   <g id="patch_6">
    <path d="M 31.08375 22.74875 
L 179.025625 22.74875 
" style="fill:none;stroke:#000000;stroke-linecap:square;stroke-linejoin:miter;"/>
   </g>
   <g id="matplotlib.axis_1">
    <g id="xtick_1">
     <g id="line2d_2">
      <defs>
       <path d="M 0 0 
L 0 -6 
" id="m1227f9807f" style="stroke:#000000;"/>
      </defs>
      <g>
       <use style="stroke:#000000;" x="37.808381" xlink:href="#m1227f9807f" y="108.76"/>
      </g>
     </g>
     <g id="line2d_3">
      <defs>
       <path d="M 0 0 
L 0 6 
" id="m8ed49cc081" style="stroke:#000000;"/>
      </defs>
      <g>
       <use style="stroke:#000000;" x="37.808381" xlink:href="#m8ed49cc081" y="22.74875"/>
      </g>
     </g>
     <g id="text_1">
      <!-- $\mathdefault{0}$ -->
      <defs>
       <path d="M 46.34375 33.109375 
Q 46.34375 23.1875 43.5625 14.59375 
Q 41.890625 9.328125 39.078125 5.953125 
Q 36.28125 2.59375 32.71875 0.609375 
Q 29.15625 -1.375 24.953125 -1.375 
Q 20.171875 -1.375 16.3125 1.0625 
Q 12.453125 3.515625 9.46875 8.0625 
Q 7.328125 11.375 5.71875 16.890625 
Q 3.609375 24.359375 3.609375 32.328125 
Q 3.609375 43.109375 6.640625 52.15625 
Q 9.125 59.625 14.203125 63.59375 
Q 19.28125 67.578125 24.953125 67.578125 
Q 30.71875 67.578125 35.71875 63.640625 
Q 40.71875 59.71875 43.0625 53.078125 
Q 46.34375 43.953125 46.34375 33.109375 
z
M 31.296875 33.203125 
Q 31.296875 50.59375 31.109375 53.46875 
Q 30.609375 60.25 28.765625 62.640625 
Q 27.546875 64.203125 24.8125 64.203125 
Q 22.703125 64.203125 21.484375 63.03125 
Q 19.671875 61.328125 19.03125 57 
Q 18.40625 52.6875 18.40625 26.859375 
Q 18.40625 12.796875 19.390625 8.015625 
Q 20.125 4.546875 21.484375 3.375 
Q 22.859375 2.203125 25.09375 2.203125 
Q 27.546875 2.203125 28.765625 3.765625 
Q 30.8125 6.5 31.109375 12.203125 
z
" id="TimesNewRomanPS-BoldMT-30"/>
      </defs>
      <g transform="translate(35.808381 119.6575)scale(0.08 -0.08)">
       <use transform="translate(0 0.421875)" xlink:href="#TimesNewRomanPS-BoldMT-30"/>
      </g>
     </g>
    </g>
    <g id="xtick_2">
     <g id="line2d_4">
      <g>
       <use style="stroke:#000000;" x="83.554168" xlink:href="#m1227f9807f" y="108.76"/>
      </g>
     </g>
     <g id="line2d_5">
      <g>
       <use style="stroke:#000000;" x="83.554168" xlink:href="#m8ed49cc081" y="22.74875"/>
      </g>
     </g>
     <g id="text_2">
      <!-- $\mathdefault{50}$ -->
      <defs>
       <path d="M 15.234375 66.21875 
L 46.234375 66.21875 
L 41.3125 53.609375 
L 15.234375 53.609375 
L 12.75 47.015625 
Q 29.59375 46.390625 38.671875 38.625 
Q 46.140625 32.234375 46.140625 22.703125 
Q 46.140625 16.609375 42.671875 10.765625 
Q 39.203125 4.9375 32.90625 1.78125 
Q 26.609375 -1.375 19.09375 -1.375 
Q 10.984375 -1.375 6.640625 1.65625 
Q 3.609375 3.8125 3.609375 6.546875 
Q 3.609375 8.640625 5.1875 10.25 
Q 6.78125 11.859375 8.890625 11.859375 
Q 10.796875 11.859375 12.75 11.078125 
Q 14.703125 10.296875 19.4375 6.984375 
Q 22.40625 4.9375 24.5625 4.15625 
Q 26.078125 3.5625 27.984375 3.5625 
Q 31.984375 3.5625 34.78125 6.484375 
Q 37.59375 9.421875 37.59375 13.53125 
Q 37.59375 22.125 29 27.484375 
Q 20.40625 32.859375 7.328125 32.859375 
Q 6 32.859375 3.375 32.8125 
z
" id="TimesNewRomanPS-BoldMT-35"/>
      </defs>
      <g transform="translate(79.554168 119.6575)scale(0.08 -0.08)">
       <use transform="translate(0 0.421875)" xlink:href="#TimesNewRomanPS-BoldMT-35"/>
       <use transform="translate(50 0.421875)" xlink:href="#TimesNewRomanPS-BoldMT-30"/>
      </g>
     </g>
    </g>
    <g id="xtick_3">
     <g id="line2d_6">
      <g>
       <use style="stroke:#000000;" x="129.299955" xlink:href="#m1227f9807f" y="108.76"/>
      </g>
     </g>
     <g id="line2d_7">
      <g>
       <use style="stroke:#000000;" x="129.299955" xlink:href="#m8ed49cc081" y="22.74875"/>
      </g>
     </g>
     <g id="text_3">
      <!-- $\mathdefault{100}$ -->
      <defs>
       <path d="M 32.5625 67.578125 
L 32.5625 13.421875 
Q 32.5625 7.328125 33.09375 5.640625 
Q 33.640625 3.953125 35.34375 2.875 
Q 37.0625 1.8125 40.828125 1.8125 
L 42.328125 1.8125 
L 42.328125 0 
L 7.46875 0 
L 7.46875 1.8125 
L 9.234375 1.8125 
Q 13.484375 1.8125 15.28125 2.78125 
Q 17.09375 3.765625 17.71875 5.46875 
Q 18.359375 7.171875 18.359375 13.421875 
L 18.359375 47.75 
Q 18.359375 52.34375 17.921875 53.484375 
Q 17.484375 54.640625 16.28125 55.4375 
Q 15.09375 56.25 13.53125 56.25 
Q 11.03125 56.25 7.46875 54.6875 
L 6.59375 56.453125 
L 30.953125 67.578125 
z
" id="TimesNewRomanPS-BoldMT-31"/>
      </defs>
      <g transform="translate(123.299955 119.6575)scale(0.08 -0.08)">
       <use transform="translate(0 0.421875)" xlink:href="#TimesNewRomanPS-BoldMT-31"/>
       <use transform="translate(50 0.421875)" xlink:href="#TimesNewRomanPS-BoldMT-30"/>
       <use transform="translate(100 0.421875)" xlink:href="#TimesNewRomanPS-BoldMT-30"/>
      </g>
     </g>
    </g>
    <g id="xtick_4">
     <g id="line2d_8">
      <g>
       <use style="stroke:#000000;" x="175.045742" xlink:href="#m1227f9807f" y="108.76"/>
      </g>
     </g>
     <g id="line2d_9">
      <g>
       <use style="stroke:#000000;" x="175.045742" xlink:href="#m8ed49cc081" y="22.74875"/>
      </g>
     </g>
     <g id="text_4">
      <!-- $\mathdefault{150}$ -->
      <g transform="translate(169.045742 119.6575)scale(0.08 -0.08)">
       <use transform="translate(0 0.421875)" xlink:href="#TimesNewRomanPS-BoldMT-31"/>
       <use transform="translate(50 0.421875)" xlink:href="#TimesNewRomanPS-BoldMT-35"/>
       <use transform="translate(100 0.421875)" xlink:href="#TimesNewRomanPS-BoldMT-30"/>
      </g>
     </g>
    </g>
    <g id="text_5">
     <!-- Time Index of Gate Sweep [#] -->
     <defs>
      <path d="M 63.09375 66.21875 
L 63.09375 48.296875 
L 61.328125 48.296875 
Q 59.765625 54.5 57.859375 57.203125 
Q 55.953125 59.90625 52.640625 61.53125 
Q 50.78125 62.40625 46.140625 62.40625 
L 41.21875 62.40625 
L 41.21875 11.328125 
Q 41.21875 6.25 41.765625 4.984375 
Q 42.328125 3.71875 43.96875 2.765625 
Q 45.609375 1.8125 48.4375 1.8125 
L 50.640625 1.8125 
L 50.640625 0 
L 15.96875 0 
L 15.96875 1.8125 
L 18.171875 1.8125 
Q 21.046875 1.8125 22.796875 2.828125 
Q 24.078125 3.515625 24.8125 5.171875 
Q 25.34375 6.34375 25.34375 11.328125 
L 25.34375 62.40625 
L 20.5625 62.40625 
Q 13.875 62.40625 10.84375 59.578125 
Q 6.59375 55.609375 5.46875 48.296875 
L 3.609375 48.296875 
L 3.609375 66.21875 
z
" id="TimesNewRomanPS-BoldMT-54"/>
      <path d="M 14.359375 67.78125 
Q 17.53125 67.78125 19.71875 65.546875 
Q 21.921875 63.328125 21.921875 60.203125 
Q 21.921875 57.078125 19.703125 54.875 
Q 17.484375 52.6875 14.359375 52.6875 
Q 11.234375 52.6875 9.03125 54.875 
Q 6.84375 57.078125 6.84375 60.203125 
Q 6.84375 63.328125 9.03125 65.546875 
Q 11.234375 67.78125 14.359375 67.78125 
z
M 21.1875 45.65625 
L 21.1875 9.46875 
Q 21.1875 4.640625 22.3125 3.296875 
Q 23.4375 1.953125 26.703125 1.765625 
L 26.703125 0 
L 2.046875 0 
L 2.046875 1.765625 
Q 5.078125 1.859375 6.546875 3.515625 
Q 7.515625 4.640625 7.515625 9.46875 
L 7.515625 36.140625 
Q 7.515625 40.96875 6.390625 42.3125 
Q 5.28125 43.65625 2.046875 43.84375 
L 2.046875 45.65625 
z
" id="TimesNewRomanPS-BoldMT-69"/>
      <path d="M 22.3125 45.65625 
L 22.3125 39.65625 
Q 26.078125 43.75 29.265625 45.375 
Q 32.46875 47.015625 36.28125 47.015625 
Q 40.671875 47.015625 43.640625 44.96875 
Q 46.625 42.921875 48.25 38.71875 
Q 52.15625 43.109375 55.734375 45.0625 
Q 59.328125 47.015625 63.234375 47.015625 
Q 67.96875 47.015625 70.765625 44.84375 
Q 73.578125 42.671875 74.671875 39.328125 
Q 75.78125 35.984375 75.78125 28.65625 
L 75.78125 9.96875 
Q 75.78125 4.6875 76.734375 3.421875 
Q 77.6875 2.15625 80.71875 1.765625 
L 80.71875 0 
L 57.125 0 
L 57.125 1.765625 
Q 59.90625 2 61.234375 3.90625 
Q 62.109375 5.21875 62.109375 9.96875 
L 62.109375 29.59375 
Q 62.109375 35.6875 61.625 37.34375 
Q 61.140625 39.015625 60.078125 39.8125 
Q 59.03125 40.625 57.625 40.625 
Q 55.515625 40.625 53.359375 39.078125 
Q 51.21875 37.546875 49.03125 34.46875 
L 49.03125 9.96875 
Q 49.03125 5.03125 49.859375 3.765625 
Q 50.984375 1.953125 54.15625 1.765625 
L 54.15625 0 
L 30.515625 0 
L 30.515625 1.765625 
Q 32.421875 1.859375 33.515625 2.703125 
Q 34.625 3.5625 34.984375 4.75 
Q 35.359375 5.953125 35.359375 9.96875 
L 35.359375 29.59375 
Q 35.359375 35.796875 34.859375 37.359375 
Q 34.375 38.921875 33.21875 39.796875 
Q 32.078125 40.671875 30.765625 40.671875 
Q 28.8125 40.671875 27.203125 39.65625 
Q 24.90625 38.140625 22.3125 34.46875 
L 22.3125 9.96875 
Q 22.3125 5.125 23.265625 3.578125 
Q 24.21875 2.046875 27.25 1.765625 
L 27.25 0 
L 3.71875 0 
L 3.71875 1.765625 
Q 6.59375 2.046875 7.8125 3.609375 
Q 8.640625 4.6875 8.640625 9.96875 
L 8.640625 35.75 
Q 8.640625 40.921875 7.6875 42.1875 
Q 6.734375 43.453125 3.71875 43.84375 
L 3.71875 45.65625 
z
" id="TimesNewRomanPS-BoldMT-6d"/>
      <path d="M 42.046875 24.46875 
L 17 24.46875 
Q 17.4375 15.375 21.828125 10.109375 
Q 25.203125 6.0625 29.9375 6.0625 
Q 32.859375 6.0625 35.25 7.6875 
Q 37.640625 9.328125 40.375 13.578125 
L 42.046875 12.5 
Q 38.328125 4.9375 33.828125 1.78125 
Q 29.34375 -1.375 23.4375 -1.375 
Q 13.28125 -1.375 8.0625 6.453125 
Q 3.859375 12.75 3.859375 22.078125 
Q 3.859375 33.5 10.03125 40.25 
Q 16.21875 47.015625 24.515625 47.015625 
Q 31.453125 47.015625 36.546875 41.328125 
Q 41.65625 35.640625 42.046875 24.46875 
z
M 30.03125 27.734375 
Q 30.03125 35.59375 29.171875 38.515625 
Q 28.328125 41.453125 26.515625 42.96875 
Q 25.484375 43.84375 23.78125 43.84375 
Q 21.234375 43.84375 19.625 41.359375 
Q 16.75 37.015625 16.75 29.4375 
L 16.75 27.734375 
z
" id="TimesNewRomanPS-BoldMT-65"/>
      <path id="TimesNewRomanPS-BoldMT-20"/>
      <path d="M 36.625 1.8125 
L 36.625 0 
L 2 0 
L 2 1.8125 
L 4.203125 1.8125 
Q 7.078125 1.8125 8.84375 2.828125 
Q 10.109375 3.515625 10.796875 5.171875 
Q 11.328125 6.34375 11.328125 11.328125 
L 11.328125 54.890625 
Q 11.328125 59.96875 10.78125 61.234375 
Q 10.25 62.5 8.609375 63.453125 
Q 6.984375 64.40625 4.203125 64.40625 
L 2 64.40625 
L 2 66.21875 
L 36.625 66.21875 
L 36.625 64.40625 
L 34.421875 64.40625 
Q 31.546875 64.40625 29.78125 63.375 
Q 28.515625 62.703125 27.78125 61.03125 
Q 27.25 59.859375 27.25 54.890625 
L 27.25 11.328125 
Q 27.25 6.25 27.8125 4.984375 
Q 28.375 3.71875 30 2.765625 
Q 31.640625 1.8125 34.421875 1.8125 
z
" id="TimesNewRomanPS-BoldMT-49"/>
      <path d="M 22.015625 45.65625 
L 22.015625 39.75 
Q 25.53125 43.5625 28.75 45.28125 
Q 31.984375 47.015625 35.6875 47.015625 
Q 40.140625 47.015625 43.0625 44.546875 
Q 46 42.09375 46.96875 38.421875 
Q 47.75 35.640625 47.75 27.734375 
L 47.75 9.96875 
Q 47.75 4.6875 48.703125 3.390625 
Q 49.65625 2.09375 52.6875 1.765625 
L 52.6875 0 
L 29.59375 0 
L 29.59375 1.765625 
Q 32.171875 2.09375 33.296875 3.90625 
Q 34.078125 5.125 34.078125 9.96875 
L 34.078125 30.28125 
Q 34.078125 35.890625 33.640625 37.34375 
Q 33.203125 38.8125 32.15625 39.625 
Q 31.109375 40.4375 29.828125 40.4375 
Q 25.640625 40.4375 22.015625 34.421875 
L 22.015625 9.96875 
Q 22.015625 4.828125 22.96875 3.453125 
Q 23.921875 2.09375 26.515625 1.765625 
L 26.515625 0 
L 3.421875 0 
L 3.421875 1.765625 
Q 6.296875 2.046875 7.515625 3.609375 
Q 8.34375 4.6875 8.34375 9.96875 
L 8.34375 35.75 
Q 8.34375 40.921875 7.390625 42.1875 
Q 6.453125 43.453125 3.421875 43.84375 
L 3.421875 45.65625 
z
" id="TimesNewRomanPS-BoldMT-6e"/>
      <path d="M 47.75 66.21875 
L 47.75 13.671875 
Q 47.75 8.34375 48.046875 7.375 
Q 48.4375 5.765625 49.53125 4.984375 
Q 50.640625 4.203125 53.375 4 
L 53.375 2.390625 
L 34.078125 -1.375 
L 34.078125 5.859375 
Q 30.609375 1.65625 27.90625 0.140625 
Q 25.203125 -1.375 21.78125 -1.375 
Q 13.03125 -1.375 7.953125 6.453125 
Q 3.859375 12.796875 3.859375 22.015625 
Q 3.859375 29.390625 6.390625 35.21875 
Q 8.9375 41.0625 13.359375 44.03125 
Q 17.78125 47.015625 22.859375 47.015625 
Q 26.125 47.015625 28.65625 45.75 
Q 31.203125 44.484375 34.078125 41.3125 
L 34.078125 55.078125 
Q 34.078125 60.296875 33.640625 61.375 
Q 33.0625 62.796875 31.890625 63.46875 
Q 30.71875 64.15625 27.484375 64.15625 
L 27.484375 66.21875 
z
M 34.078125 35.25 
Q 30.46875 42.1875 25.25 42.1875 
Q 23.4375 42.1875 22.265625 41.21875 
Q 20.453125 39.703125 19.3125 35.890625 
Q 18.171875 32.078125 18.171875 24.21875 
Q 18.171875 15.578125 19.4375 11.421875 
Q 20.703125 7.28125 22.90625 5.421875 
Q 24.03125 4.5 25.984375 4.5 
Q 30.28125 4.5 34.078125 11.234375 
z
" id="TimesNewRomanPS-BoldMT-64"/>
      <path d="M 30.375 27.984375 
L 38.28125 12.9375 
Q 42.390625 5.078125 44.78125 2.984375 
Q 46.09375 1.859375 48.390625 1.765625 
L 48.390625 0 
L 22.953125 0 
L 22.953125 1.765625 
Q 25.921875 2 26.625 2.53125 
Q 27.34375 3.078125 27.34375 4 
Q 27.34375 5.375 25.78125 8.296875 
L 21.828125 15.71875 
L 18.453125 10.796875 
Q 16.15625 7.421875 15.875 6.78125 
Q 15.484375 5.859375 15.484375 5.125 
Q 15.484375 4 15.9375 3.234375 
Q 16.40625 2.484375 17.203125 2.125 
Q 18.015625 1.765625 20.171875 1.765625 
L 20.171875 0 
L 2.296875 0 
L 2.296875 1.765625 
Q 5.609375 1.765625 8.375 3.59375 
Q 11.140625 5.421875 16.40625 13.1875 
L 20.171875 18.75 
L 12.3125 33.296875 
Q 8.453125 40.4375 6.546875 42.046875 
Q 4.640625 43.65625 2.296875 43.84375 
L 2.296875 45.65625 
L 27.59375 45.65625 
L 27.59375 43.84375 
L 26.265625 43.796875 
L 23.734375 42.921875 
Q 23.34375 42.578125 23.34375 41.796875 
Q 23.34375 41.0625 23.578125 40.28125 
Q 23.734375 39.9375 24.953125 37.640625 
L 28.515625 31 
L 30.375 33.640625 
Q 34.28125 39.015625 34.28125 41.15625 
Q 34.28125 42.1875 33.421875 42.890625 
Q 32.5625 43.609375 30.375 43.84375 
L 30.375 45.65625 
L 46.53125 45.65625 
L 46.53125 43.84375 
Q 43.5625 43.75 40.96875 42.015625 
Q 38.375 40.28125 35.15625 35.296875 
z
" id="TimesNewRomanPS-BoldMT-78"/>
      <path d="M 24.90625 47.015625 
Q 30.859375 47.015625 35.984375 43.9375 
Q 41.109375 40.875 43.765625 35.203125 
Q 46.4375 29.546875 46.4375 22.796875 
Q 46.4375 13.09375 41.5 6.546875 
Q 35.546875 -1.375 25.046875 -1.375 
Q 14.75 -1.375 9.171875 5.859375 
Q 3.609375 13.09375 3.609375 22.609375 
Q 3.609375 32.421875 9.296875 39.71875 
Q 14.984375 47.015625 24.90625 47.015625 
z
M 25.09375 43.5625 
Q 22.609375 43.5625 20.828125 41.671875 
Q 19.046875 39.796875 18.484375 34.25 
Q 17.921875 28.71875 17.921875 18.84375 
Q 17.921875 13.625 18.609375 9.078125 
Q 19.140625 5.609375 20.890625 3.796875 
Q 22.65625 2 24.90625 2 
Q 27.09375 2 28.5625 3.21875 
Q 30.46875 4.890625 31.109375 7.859375 
Q 32.078125 12.5 32.078125 26.609375 
Q 32.078125 34.90625 31.140625 38 
Q 30.21875 41.109375 28.421875 42.53125 
Q 27.15625 43.5625 25.09375 43.5625 
z
" id="TimesNewRomanPS-BoldMT-6f"/>
      <path d="M 23.390625 40.875 
L 23.390625 9.1875 
Q 23.390625 4.59375 24.359375 3.421875 
Q 25.921875 1.609375 30.125 1.765625 
L 30.125 0 
L 3.21875 0 
L 3.21875 1.765625 
Q 6.296875 1.8125 7.59375 2.46875 
Q 8.890625 3.125 9.375 4.296875 
Q 9.859375 5.46875 9.859375 9.1875 
L 9.859375 40.875 
L 3.21875 40.875 
L 3.21875 45.65625 
L 9.859375 45.65625 
L 9.859375 49.03125 
L 9.8125 51.3125 
Q 9.8125 58.34375 14.96875 63.03125 
Q 20.125 67.71875 28.90625 67.71875 
Q 34.90625 67.71875 37.8125 65.46875 
Q 40.71875 63.234375 40.71875 60.5 
Q 40.71875 58.296875 38.90625 56.6875 
Q 37.109375 55.078125 34.125 55.078125 
Q 31.59375 55.078125 30.09375 56.390625 
Q 28.609375 57.71875 28.609375 59.328125 
Q 28.609375 59.765625 28.90625 61.140625 
Q 29.109375 61.96875 29.109375 62.703125 
Q 29.109375 63.71875 28.515625 64.203125 
Q 27.734375 64.9375 26.609375 64.9375 
Q 25.203125 64.9375 24.25 63.765625 
Q 23.296875 62.59375 23.296875 60.015625 
L 23.390625 51.46875 
L 23.390625 45.65625 
L 30.125 45.65625 
L 30.125 40.875 
z
" id="TimesNewRomanPS-BoldMT-66"/>
      <path d="M 69 67.71875 
L 69 44.390625 
L 67.1875 44.390625 
Q 63.921875 53.953125 57.375 58.9375 
Q 50.828125 63.921875 43.0625 63.921875 
Q 35.640625 63.921875 30.703125 59.734375 
Q 25.78125 55.5625 23.734375 48.09375 
Q 21.6875 40.625 21.6875 32.765625 
Q 21.6875 23.25 23.921875 16.0625 
Q 26.171875 8.890625 31.171875 5.515625 
Q 36.1875 2.15625 43.0625 2.15625 
Q 45.453125 2.15625 47.96875 2.65625 
Q 50.484375 3.171875 53.125 4.15625 
L 53.125 17.921875 
Q 53.125 21.828125 52.578125 22.96875 
Q 52.046875 24.125 50.359375 25.046875 
Q 48.6875 25.984375 46.296875 25.984375 
L 44.578125 25.984375 
L 44.578125 27.78125 
L 76.765625 27.78125 
L 76.765625 25.984375 
Q 73.09375 25.734375 71.65625 24.96875 
Q 70.21875 24.21875 69.4375 22.46875 
Q 69 21.53125 69 17.921875 
L 69 4.15625 
Q 62.640625 1.3125 55.78125 -0.125 
Q 48.921875 -1.5625 41.546875 -1.5625 
Q 32.125 -1.5625 25.890625 1 
Q 19.671875 3.5625 14.90625 7.734375 
Q 10.15625 11.921875 7.46875 17.140625 
Q 4.046875 23.875 4.046875 32.234375 
Q 4.046875 47.171875 14.546875 57.46875 
Q 25.046875 67.78125 40.96875 67.78125 
Q 45.90625 67.78125 49.859375 67 
Q 52 66.609375 56.8125 64.765625 
Q 61.625 62.9375 62.5 62.9375 
Q 63.875 62.9375 65.046875 63.9375 
Q 66.21875 64.9375 67.1875 67.71875 
z
" id="TimesNewRomanPS-BoldMT-47"/>
      <path d="M 28.5625 6.734375 
Q 20.21875 -0.640625 13.578125 -0.640625 
Q 9.671875 -0.640625 7.078125 1.921875 
Q 4.5 4.5 4.5 8.34375 
Q 4.5 13.578125 8.984375 17.75 
Q 13.484375 21.921875 28.5625 28.859375 
L 28.5625 33.453125 
Q 28.5625 38.625 28 39.96875 
Q 27.4375 41.3125 25.875 42.3125 
Q 24.3125 43.3125 22.359375 43.3125 
Q 19.1875 43.3125 17.140625 41.890625 
Q 15.875 41.015625 15.875 39.84375 
Q 15.875 38.8125 17.234375 37.3125 
Q 19.09375 35.203125 19.09375 33.25 
Q 19.09375 30.859375 17.3125 29.171875 
Q 15.53125 27.484375 12.640625 27.484375 
Q 9.578125 27.484375 7.5 29.34375 
Q 5.421875 31.203125 5.421875 33.6875 
Q 5.421875 37.203125 8.203125 40.40625 
Q 10.984375 43.609375 15.96875 45.3125 
Q 20.953125 47.015625 26.3125 47.015625 
Q 32.8125 47.015625 36.59375 44.25 
Q 40.375 41.5 41.5 38.28125 
Q 42.1875 36.234375 42.1875 28.859375 
L 42.1875 11.140625 
Q 42.1875 8.015625 42.421875 7.203125 
Q 42.671875 6.390625 43.15625 6 
Q 43.65625 5.609375 44.28125 5.609375 
Q 45.5625 5.609375 46.875 7.421875 
L 48.34375 6.25 
Q 45.90625 2.640625 43.28125 1 
Q 40.671875 -0.640625 37.359375 -0.640625 
Q 33.453125 -0.640625 31.25 1.1875 
Q 29.046875 3.03125 28.5625 6.734375 
z
M 28.5625 10.296875 
L 28.5625 25.59375 
Q 22.65625 22.125 19.78125 18.171875 
Q 17.875 15.53125 17.875 12.84375 
Q 17.875 10.59375 19.484375 8.890625 
Q 20.703125 7.5625 22.90625 7.5625 
Q 25.34375 7.5625 28.5625 10.296875 
z
" id="TimesNewRomanPS-BoldMT-61"/>
      <path d="M 21.484375 62.359375 
L 21.484375 45.65625 
L 32.328125 45.65625 
L 32.328125 40.828125 
L 21.484375 40.828125 
L 21.484375 12.640625 
Q 21.484375 8.6875 21.84375 7.53125 
Q 22.21875 6.390625 23.140625 5.6875 
Q 24.078125 4.984375 24.859375 4.984375 
Q 28.03125 4.984375 30.859375 9.8125 
L 32.328125 8.734375 
Q 28.375 -0.640625 19.484375 -0.640625 
Q 15.140625 -0.640625 12.125 1.78125 
Q 9.125 4.203125 8.296875 7.171875 
Q 7.8125 8.84375 7.8125 16.15625 
L 7.8125 40.828125 
L 1.859375 40.828125 
L 1.859375 42.53125 
Q 8.015625 46.875 12.328125 51.65625 
Q 16.65625 56.453125 19.875 62.359375 
z
" id="TimesNewRomanPS-BoldMT-74"/>
      <path d="M 46.96875 67.71875 
L 47.515625 45.65625 
L 45.515625 45.65625 
Q 44.09375 53.953125 38.546875 59 
Q 33.015625 64.0625 26.5625 64.0625 
Q 21.578125 64.0625 18.671875 61.390625 
Q 15.765625 58.734375 15.765625 55.28125 
Q 15.765625 53.078125 16.796875 51.375 
Q 18.21875 49.078125 21.34375 46.828125 
Q 23.640625 45.21875 31.9375 41.109375 
Q 43.5625 35.40625 47.609375 30.328125 
Q 51.609375 25.25 51.609375 18.703125 
Q 51.609375 10.40625 45.140625 4.421875 
Q 38.671875 -1.5625 28.71875 -1.5625 
Q 25.59375 -1.5625 22.796875 -0.921875 
Q 20.015625 -0.296875 15.828125 1.46875 
Q 13.484375 2.4375 11.96875 2.4375 
Q 10.6875 2.4375 9.265625 1.453125 
Q 7.859375 0.484375 6.984375 -1.515625 
L 5.171875 -1.515625 
L 5.171875 23.484375 
L 6.984375 23.484375 
Q 9.125 12.9375 15.25 7.390625 
Q 21.390625 1.859375 28.46875 1.859375 
Q 33.9375 1.859375 37.1875 4.828125 
Q 40.4375 7.8125 40.4375 11.765625 
Q 40.4375 14.109375 39.1875 16.296875 
Q 37.9375 18.5 35.390625 20.484375 
Q 32.859375 22.46875 26.421875 25.640625 
Q 17.390625 30.078125 13.421875 33.203125 
Q 9.46875 36.328125 7.34375 40.1875 
Q 5.21875 44.046875 5.21875 48.6875 
Q 5.21875 56.59375 11.03125 62.15625 
Q 16.84375 67.71875 25.6875 67.71875 
Q 28.90625 67.71875 31.9375 66.9375 
Q 34.234375 66.359375 37.53125 64.765625 
Q 40.828125 63.1875 42.140625 63.1875 
Q 43.40625 63.1875 44.140625 63.96875 
Q 44.875 64.75 45.515625 67.71875 
z
" id="TimesNewRomanPS-BoldMT-53"/>
      <path d="M 48.640625 -1.375 
L 36.140625 32.125 
L 23.875 -1.375 
L 21.34375 -1.375 
L 9.1875 31.734375 
Q 6.453125 39.3125 4.546875 41.609375 
Q 3.328125 43.171875 0.828125 43.84375 
L 0.828125 45.65625 
L 23.875 45.65625 
L 23.875 43.84375 
Q 21.53125 43.84375 20.65625 43.15625 
Q 19.78125 42.484375 19.78125 41.609375 
Q 19.78125 40.765625 21.34375 36.625 
L 28.03125 18.796875 
L 34.46875 36.625 
L 33.984375 37.796875 
Q 32.515625 41.453125 31.421875 42.453125 
Q 30.328125 43.453125 28.03125 43.84375 
L 28.03125 45.65625 
L 51.421875 45.65625 
L 51.421875 43.84375 
Q 48.6875 43.703125 47.953125 43.09375 
Q 47.21875 42.484375 47.21875 41.359375 
Q 47.21875 40.28125 48.640625 36.625 
L 55.078125 18.796875 
L 60.9375 35.203125 
Q 62.203125 38.71875 62.203125 39.984375 
Q 62.203125 41.890625 61.28125 42.765625 
Q 60.359375 43.65625 57.671875 43.84375 
L 57.671875 45.65625 
L 71.1875 45.65625 
L 71.1875 43.84375 
Q 68.953125 43.5625 67.625 42.265625 
Q 66.3125 40.96875 64.203125 34.90625 
L 51.421875 -1.375 
z
" id="TimesNewRomanPS-BoldMT-77"/>
      <path d="M 21.046875 4.640625 
L 21.046875 -12.359375 
Q 21.046875 -15.875 21.609375 -17.140625 
Q 22.171875 -18.40625 23.34375 -18.984375 
Q 24.515625 -19.578125 27.9375 -19.578125 
L 27.9375 -21.390625 
L 1.90625 -21.390625 
L 1.90625 -19.578125 
Q 4.9375 -19.484375 6.390625 -17.875 
Q 7.375 -16.75 7.375 -12.0625 
L 7.375 36.140625 
Q 7.375 40.96875 6.25 42.3125 
Q 5.125 43.65625 1.90625 43.84375 
L 1.90625 45.65625 
L 21.046875 45.65625 
L 21.046875 39.65625 
Q 23.4375 43.171875 25.921875 44.734375 
Q 29.5 47.015625 33.6875 47.015625 
Q 38.71875 47.015625 42.84375 43.84375 
Q 46.96875 40.671875 49.109375 35.078125 
Q 51.265625 29.5 51.265625 23.046875 
Q 51.265625 16.109375 49.046875 10.375 
Q 46.828125 4.640625 42.59375 1.625 
Q 38.375 -1.375 33.203125 -1.375 
Q 29.4375 -1.375 26.171875 0.296875 
Q 23.734375 1.5625 21.046875 4.640625 
z
M 21.046875 9.578125 
Q 25.25 3.609375 30.03125 3.609375 
Q 32.671875 3.609375 34.375 6.390625 
Q 36.921875 10.5 36.921875 22.015625 
Q 36.921875 33.84375 34.125 38.1875 
Q 32.28125 41.0625 29.15625 41.0625 
Q 24.21875 41.0625 21.046875 33.9375 
z
" id="TimesNewRomanPS-BoldMT-70"/>
      <path d="M 10.453125 -18.265625 
L 10.453125 66.21875 
L 30.078125 66.21875 
L 30.078125 64.15625 
L 27.875 64.15625 
Q 24.65625 64.15625 23.5625 63.5 
Q 22.46875 62.84375 21.90625 61.546875 
Q 21.34375 60.25 21.34375 55.328125 
L 21.34375 -7.71875 
Q 21.34375 -12.40625 21.53125 -13.09375 
Q 21.96875 -14.84375 23.15625 -15.671875 
Q 24.359375 -16.5 27.875 -16.5 
L 30.078125 -16.5 
L 30.078125 -18.265625 
z
" id="TimesNewRomanPS-BoldMT-5b"/>
      <path d="M 4.390625 -1.375 
L 8.59375 19.34375 
L 1.953125 19.34375 
L 1.953125 25.828125 
L 9.859375 25.828125 
L 12.75 40.09375 
L 1.953125 40.09375 
L 1.953125 46.4375 
L 14.015625 46.4375 
L 18.265625 67.578125 
L 24.703125 67.578125 
L 20.40625 46.4375 
L 34.8125 46.4375 
L 39.015625 67.578125 
L 45.453125 67.578125 
L 41.15625 46.4375 
L 48 46.4375 
L 48 40.09375 
L 39.9375 40.09375 
L 37.015625 25.828125 
L 48 25.828125 
L 48 19.34375 
L 35.796875 19.34375 
L 31.59375 -1.375 
L 25.09375 -1.375 
L 29.296875 19.34375 
L 15.09375 19.34375 
L 10.6875 -1.375 
z
M 16.359375 25.828125 
L 30.71875 25.828125 
L 33.546875 40.09375 
L 19.1875 40.09375 
z
" id="TimesNewRomanPS-BoldMT-23"/>
      <path d="M 22.90625 66.21875 
L 22.90625 -18.265625 
L 3.265625 -18.265625 
L 3.265625 -16.40625 
L 5.46875 -16.40625 
Q 8.6875 -16.40625 9.78125 -15.765625 
Q 10.890625 -15.140625 11.453125 -13.8125 
Q 12.015625 -12.5 12.015625 -7.625 
L 12.015625 55.46875 
Q 12.015625 60.15625 11.8125 60.84375 
Q 11.375 62.546875 10.171875 63.40625 
Q 8.984375 64.265625 5.46875 64.265625 
L 3.265625 64.265625 
L 3.265625 66.21875 
z
" id="TimesNewRomanPS-BoldMT-5d"/>
     </defs>
     <g transform="translate(28.89875 129.5025)scale(0.12 -0.12)">
      <use xlink:href="#TimesNewRomanPS-BoldMT-54"/>
      <use x="66.683594" xlink:href="#TimesNewRomanPS-BoldMT-69"/>
      <use x="94.466797" xlink:href="#TimesNewRomanPS-BoldMT-6d"/>
      <use x="177.767578" xlink:href="#TimesNewRomanPS-BoldMT-65"/>
      <use x="222.152344" xlink:href="#TimesNewRomanPS-BoldMT-20"/>
      <use x="247.152344" xlink:href="#TimesNewRomanPS-BoldMT-49"/>
      <use x="286.068359" xlink:href="#TimesNewRomanPS-BoldMT-6e"/>
      <use x="341.683594" xlink:href="#TimesNewRomanPS-BoldMT-64"/>
      <use x="397.298828" xlink:href="#TimesNewRomanPS-BoldMT-65"/>
      <use x="441.683594" xlink:href="#TimesNewRomanPS-BoldMT-78"/>
      <use x="491.683594" xlink:href="#TimesNewRomanPS-BoldMT-20"/>
      <use x="516.683594" xlink:href="#TimesNewRomanPS-BoldMT-6f"/>
      <use x="566.683594" xlink:href="#TimesNewRomanPS-BoldMT-66"/>
      <use x="599.984375" xlink:href="#TimesNewRomanPS-BoldMT-20"/>
      <use x="624.984375" xlink:href="#TimesNewRomanPS-BoldMT-47"/>
      <use x="702.767578" xlink:href="#TimesNewRomanPS-BoldMT-61"/>
      <use x="752.767578" xlink:href="#TimesNewRomanPS-BoldMT-74"/>
      <use x="786.068359" xlink:href="#TimesNewRomanPS-BoldMT-65"/>
      <use x="830.453125" xlink:href="#TimesNewRomanPS-BoldMT-20"/>
      <use x="855.453125" xlink:href="#TimesNewRomanPS-BoldMT-53"/>
      <use x="911.068359" xlink:href="#TimesNewRomanPS-BoldMT-77"/>
      <use x="983.285156" xlink:href="#TimesNewRomanPS-BoldMT-65"/>
      <use x="1027.669922" xlink:href="#TimesNewRomanPS-BoldMT-65"/>
      <use x="1072.054688" xlink:href="#TimesNewRomanPS-BoldMT-70"/>
      <use x="1127.669922" xlink:href="#TimesNewRomanPS-BoldMT-20"/>
      <use x="1152.669922" xlink:href="#TimesNewRomanPS-BoldMT-5b"/>
      <use x="1185.970703" xlink:href="#TimesNewRomanPS-BoldMT-23"/>
      <use x="1235.970703" xlink:href="#TimesNewRomanPS-BoldMT-5d"/>
     </g>
    </g>
   </g>
   <g id="matplotlib.axis_2">
    <g id="ytick_1">
     <g id="line2d_10">
      <defs>
       <path d="M 0 0 
L 6 0 
" id="mf798a5a1bf" style="stroke:#000000;"/>
      </defs>
      <g>
       <use style="stroke:#000000;" x="31.08375" xlink:href="#mf798a5a1bf" y="108.76"/>
      </g>
     </g>
     <g id="text_6">
      <!-- $\mathdefault{0}$ -->
      <g transform="translate(21.48375 111.40875)scale(0.08 -0.08)">
       <use transform="translate(0 0.421875)" xlink:href="#TimesNewRomanPS-BoldMT-30"/>
      </g>
     </g>
    </g>
    <g id="ytick_2">
     <g id="line2d_11">
      <g>
       <use style="stroke:#000000;" x="31.08375" xlink:href="#mf798a5a1bf" y="88.400716"/>
      </g>
     </g>
     <g id="text_7">
      <!-- $\mathdefault{1}$ -->
      <g transform="translate(21.48375 91.049466)scale(0.08 -0.08)">
       <use transform="translate(0 0.421875)" xlink:href="#TimesNewRomanPS-BoldMT-31"/>
      </g>
     </g>
    </g>
    <g id="ytick_3">
     <g id="line2d_12">
      <g>
       <use style="stroke:#000000;" x="31.08375" xlink:href="#mf798a5a1bf" y="68.041432"/>
      </g>
     </g>
     <g id="text_8">
      <!-- $\mathdefault{2}$ -->
      <defs>
       <path d="M 41.40625 0 
L 2.4375 0 
L 2.4375 1.078125 
Q 20.359375 22.40625 24.1875 29.78125 
Q 28.03125 37.15625 28.03125 44.1875 
Q 28.03125 49.3125 24.859375 52.703125 
Q 21.6875 56.109375 17.09375 56.109375 
Q 9.578125 56.109375 5.421875 48.578125 
L 3.609375 49.21875 
Q 6.25 58.59375 11.625 63.078125 
Q 17 67.578125 24.03125 67.578125 
Q 29.046875 67.578125 33.203125 65.234375 
Q 37.359375 62.890625 39.703125 58.8125 
Q 42.046875 54.734375 42.046875 51.171875 
Q 42.046875 44.671875 38.421875 37.984375 
Q 33.5 28.953125 16.890625 12.796875 
L 31.203125 12.796875 
Q 36.46875 12.796875 38.0625 13.234375 
Q 39.65625 13.671875 40.671875 14.71875 
Q 41.703125 15.765625 43.359375 19.140625 
L 45.125 19.140625 
z
" id="TimesNewRomanPS-BoldMT-32"/>
      </defs>
      <g transform="translate(21.48375 70.690182)scale(0.08 -0.08)">
       <use transform="translate(0 0.421875)" xlink:href="#TimesNewRomanPS-BoldMT-32"/>
      </g>
     </g>
    </g>
    <g id="ytick_4">
     <g id="line2d_13">
      <g>
       <use style="stroke:#000000;" x="31.08375" xlink:href="#mf798a5a1bf" y="47.682148"/>
      </g>
     </g>
     <g id="text_9">
      <!-- $\mathdefault{3}$ -->
      <defs>
       <path d="M 14.796875 33.203125 
L 14.796875 34.90625 
Q 20.359375 36.53125 22.5 37.921875 
Q 24.65625 39.3125 26.21875 42.15625 
Q 27.78125 45.015625 27.78125 47.953125 
Q 27.78125 52 24.828125 54.90625 
Q 21.875 57.8125 17.484375 57.8125 
Q 10.640625 57.8125 5.859375 50.59375 
L 4.046875 51.21875 
Q 7.5625 59.375 13.0625 63.46875 
Q 18.5625 67.578125 25.296875 67.578125 
Q 32.171875 67.578125 36.640625 63.375 
Q 41.109375 59.1875 41.109375 53.5625 
Q 41.109375 49.90625 39.03125 46.5 
Q 36.96875 43.109375 32.515625 40.53125 
Q 38.234375 37.75 41.234375 33.671875 
Q 44.234375 29.59375 44.234375 23.4375 
Q 44.234375 13.09375 36.734375 5.828125 
Q 29.25 -1.421875 16.65625 -1.421875 
Q 8.25 -1.421875 4.390625 1.375 
Q 1.609375 3.328125 1.609375 6.390625 
Q 1.609375 8.640625 3.21875 10.21875 
Q 4.828125 11.8125 6.9375 11.8125 
Q 8.546875 11.8125 9.96875 11.140625 
Q 10.75 10.75 15.5 6.859375 
Q 20.265625 2.984375 24.421875 2.984375 
Q 28.03125 2.984375 30.609375 5.828125 
Q 33.203125 8.6875 33.203125 13.09375 
Q 33.203125 19.78125 28.515625 25.421875 
Q 23.828125 31.0625 14.796875 33.203125 
z
" id="TimesNewRomanPS-BoldMT-33"/>
      </defs>
      <g transform="translate(21.48375 50.330898)scale(0.08 -0.08)">
       <use transform="translate(0 0.421875)" xlink:href="#TimesNewRomanPS-BoldMT-33"/>
      </g>
     </g>
    </g>
    <g id="ytick_5">
     <g id="line2d_14">
      <g>
       <use style="stroke:#000000;" x="31.08375" xlink:href="#mf798a5a1bf" y="27.322864"/>
      </g>
     </g>
     <g id="text_10">
      <!-- $\mathdefault{4}$ -->
      <defs>
       <path d="M 2.484375 24.953125 
L 33.9375 67.578125 
L 39.890625 67.578125 
L 39.890625 24.953125 
L 45.953125 24.953125 
L 45.953125 14.84375 
L 39.890625 14.84375 
L 39.890625 0 
L 26.46875 0 
L 26.46875 14.84375 
L 2.484375 14.84375 
z
M 7.234375 24.953125 
L 26.46875 24.953125 
L 26.46875 51.078125 
z
" id="TimesNewRomanPS-BoldMT-34"/>
      </defs>
      <g transform="translate(21.48375 29.971614)scale(0.08 -0.08)">
       <use transform="translate(0 0.421875)" xlink:href="#TimesNewRomanPS-BoldMT-34"/>
      </g>
     </g>
    </g>
    <g id="text_11">
     <!-- On-Current [A] -->
     <defs>
      <path d="M 38.625 67.140625 
Q 54.4375 67.71875 64.328125 57.90625 
Q 74.21875 48.09375 74.21875 33.34375 
Q 74.21875 20.75 66.84375 11.1875 
Q 57.078125 -1.515625 39.265625 -1.515625 
Q 21.390625 -1.515625 11.625 10.59375 
Q 3.90625 20.171875 3.90625 33.296875 
Q 3.90625 48.046875 13.9375 57.875 
Q 23.96875 67.71875 38.625 67.140625 
z
M 39.203125 64.015625 
Q 30.125 64.015625 25.390625 54.734375 
Q 21.53125 47.125 21.53125 32.859375 
Q 21.53125 15.921875 27.484375 7.8125 
Q 31.640625 2.15625 39.109375 2.15625 
Q 44.140625 2.15625 47.515625 4.59375 
Q 51.8125 7.71875 54.203125 14.578125 
Q 56.59375 21.4375 56.59375 32.46875 
Q 56.59375 45.609375 54.140625 52.125 
Q 51.703125 58.640625 47.921875 61.328125 
Q 44.140625 64.015625 39.203125 64.015625 
z
" id="TimesNewRomanPS-BoldMT-4f"/>
      <path d="M 30.90625 17.921875 
L 2.4375 17.921875 
L 2.4375 28.03125 
L 30.90625 28.03125 
z
" id="TimesNewRomanPS-BoldMT-2d"/>
      <path d="M 66.75 67.71875 
L 66.75 44.78125 
L 64.84375 44.78125 
Q 62.703125 53.765625 56.84375 58.546875 
Q 50.984375 63.328125 43.5625 63.328125 
Q 37.359375 63.328125 32.171875 59.765625 
Q 27 56.203125 24.609375 50.4375 
Q 21.53125 43.0625 21.53125 34.03125 
Q 21.53125 25.140625 23.78125 17.84375 
Q 26.03125 10.546875 30.8125 6.8125 
Q 35.59375 3.078125 43.21875 3.078125 
Q 49.46875 3.078125 54.65625 5.8125 
Q 59.859375 8.546875 65.625 15.234375 
L 65.625 9.515625 
Q 60.0625 3.71875 54.03125 1.09375 
Q 48 -1.515625 39.9375 -1.515625 
Q 29.34375 -1.515625 21.109375 2.734375 
Q 12.890625 6.984375 8.421875 14.9375 
Q 3.953125 22.90625 3.953125 31.890625 
Q 3.953125 41.359375 8.90625 49.84375 
Q 13.875 58.34375 22.296875 63.03125 
Q 30.71875 67.71875 40.1875 67.71875 
Q 47.171875 67.71875 54.9375 64.703125 
Q 59.421875 62.9375 60.640625 62.9375 
Q 62.203125 62.9375 63.34375 64.078125 
Q 64.5 65.234375 64.84375 67.71875 
z
" id="TimesNewRomanPS-BoldMT-43"/>
      <path d="M 47.46875 45.65625 
L 47.46875 9.90625 
Q 47.46875 4.6875 48.4375 3.390625 
Q 49.421875 2.09375 52.390625 1.765625 
L 52.390625 0 
L 33.796875 0 
L 33.796875 6.109375 
Q 30.515625 2.203125 27.234375 0.40625 
Q 23.96875 -1.375 19.921875 -1.375 
Q 16.0625 -1.375 13.0625 1 
Q 10.0625 3.375 9.03125 6.546875 
Q 8.015625 9.71875 8.015625 17.625 
L 8.015625 35.75 
Q 8.015625 40.921875 7.0625 42.1875 
Q 6.109375 43.453125 3.078125 43.84375 
L 3.078125 45.65625 
L 21.6875 45.65625 
L 21.6875 14.453125 
Q 21.6875 9.578125 22.140625 8.15625 
Q 22.609375 6.734375 23.609375 6 
Q 24.609375 5.28125 25.921875 5.28125 
Q 27.6875 5.28125 29.109375 6.203125 
Q 31.0625 7.46875 33.796875 11.328125 
L 33.796875 35.75 
Q 33.796875 40.921875 32.84375 42.1875 
Q 31.890625 43.453125 28.859375 43.84375 
L 28.859375 45.65625 
z
" id="TimesNewRomanPS-BoldMT-75"/>
      <path d="M 22.3125 45.65625 
L 22.3125 35.296875 
Q 26.859375 42.390625 30.265625 44.703125 
Q 33.6875 47.015625 36.859375 47.015625 
Q 39.59375 47.015625 41.234375 45.328125 
Q 42.875 43.65625 42.875 40.578125 
Q 42.875 37.3125 41.28125 35.5 
Q 39.703125 33.6875 37.453125 33.6875 
Q 34.859375 33.6875 32.953125 35.34375 
Q 31.0625 37.015625 30.71875 37.203125 
Q 30.21875 37.5 29.59375 37.5 
Q 28.171875 37.5 26.90625 36.421875 
Q 24.90625 34.765625 23.875 31.6875 
Q 22.3125 26.953125 22.3125 21.234375 
L 22.3125 10.75 
L 22.359375 8.015625 
Q 22.359375 5.21875 22.703125 4.4375 
Q 23.296875 3.125 24.4375 2.515625 
Q 25.59375 1.90625 28.328125 1.765625 
L 28.328125 0 
L 3.65625 0 
L 3.65625 1.765625 
Q 6.640625 2 7.6875 3.390625 
Q 8.734375 4.78125 8.734375 10.75 
L 8.734375 35.984375 
Q 8.734375 39.890625 8.34375 40.96875 
Q 7.859375 42.328125 6.921875 42.96875 
Q 6 43.609375 3.65625 43.84375 
L 3.65625 45.65625 
z
" id="TimesNewRomanPS-BoldMT-72"/>
      <path d="M 41.609375 18.84375 
L 18.21875 18.84375 
L 15.4375 12.40625 
Q 14.0625 9.1875 14.0625 7.078125 
Q 14.0625 4.296875 16.3125 2.984375 
Q 17.625 2.203125 22.796875 1.8125 
L 22.796875 0 
L 0.78125 0 
L 0.78125 1.8125 
Q 4.34375 2.34375 6.640625 4.75 
Q 8.9375 7.171875 12.3125 14.75 
L 35.984375 67.578125 
L 36.921875 67.578125 
L 60.796875 13.28125 
Q 64.203125 5.5625 66.40625 3.5625 
Q 68.0625 2.046875 71.09375 1.8125 
L 71.09375 0 
L 39.0625 0 
L 39.0625 1.8125 
L 40.375 1.8125 
Q 44.234375 1.8125 45.796875 2.875 
Q 46.875 3.65625 46.875 5.125 
Q 46.875 6 46.578125 6.9375 
Q 46.484375 7.375 45.125 10.59375 
z
M 39.9375 22.46875 
L 30.078125 45.265625 
L 19.921875 22.46875 
z
" id="TimesNewRomanPS-BoldMT-41"/>
     </defs>
     <g transform="translate(18.916875 106.577812)rotate(-90)scale(0.12 -0.12)">
      <use xlink:href="#TimesNewRomanPS-BoldMT-4f"/>
      <use x="77.783203" xlink:href="#TimesNewRomanPS-BoldMT-6e"/>
      <use x="133.398438" xlink:href="#TimesNewRomanPS-BoldMT-2d"/>
      <use x="166.699219" xlink:href="#TimesNewRomanPS-BoldMT-43"/>
      <use x="238.916016" xlink:href="#TimesNewRomanPS-BoldMT-75"/>
      <use x="294.53125" xlink:href="#TimesNewRomanPS-BoldMT-72"/>
      <use x="338.916016" xlink:href="#TimesNewRomanPS-BoldMT-72"/>
      <use x="383.285156" xlink:href="#TimesNewRomanPS-BoldMT-65"/>
      <use x="427.669922" xlink:href="#TimesNewRomanPS-BoldMT-6e"/>
      <use x="483.285156" xlink:href="#TimesNewRomanPS-BoldMT-74"/>
      <use x="516.585938" xlink:href="#TimesNewRomanPS-BoldMT-20"/>
      <use x="541.585938" xlink:href="#TimesNewRomanPS-BoldMT-5b"/>
      <use x="574.886719" xlink:href="#TimesNewRomanPS-BoldMT-41"/>
      <use x="647.103516" xlink:href="#TimesNewRomanPS-BoldMT-5d"/>
     </g>
    </g>
    <g id="text_12">
     <!-- $\times\mathdefault{10^{6}}\mathdefault{}$ -->
     <defs>
      <path d="M 12.0625 54.296875 
L 28.65625 37.703125 
L 45.265625 54.25 
L 49.75 49.75 
L 33.203125 33.15625 
L 49.8125 16.546875 
L 45.265625 12.015625 
L 28.65625 28.609375 
L 12.15625 12.15625 
L 7.671875 16.65625 
L 24.125 33.109375 
L 7.515625 49.75 
z
" id="TimesNewRomanPS-BoldMT-d7"/>
      <path d="M 1.953125 36.328125 
L 55.328125 36.328125 
L 55.328125 29.890625 
L 1.953125 29.890625 
z
" id="TimesNewRomanPS-BoldMT-2212"/>
      <path d="M 46.96875 67.578125 
L 46.96875 66.21875 
Q 38.140625 63.96875 32.78125 60.421875 
Q 27.4375 56.890625 24.328125 51.828125 
Q 21.234375 46.78125 19.53125 39.3125 
Q 21.6875 40.765625 23.09375 41.21875 
Q 26.265625 42.1875 29.5 42.1875 
Q 36.921875 42.1875 41.875 36.78125 
Q 46.828125 31.390625 46.828125 22.078125 
Q 46.828125 15.53125 44.140625 10.0625 
Q 41.453125 4.59375 36.515625 1.609375 
Q 31.59375 -1.375 25.984375 -1.375 
Q 19.875 -1.375 14.6875 1.96875 
Q 9.515625 5.328125 6.609375 11.765625 
Q 3.71875 18.21875 3.71875 25.78125 
Q 3.71875 36.921875 9.0625 46.515625 
Q 14.40625 56.109375 24.234375 61.796875 
Q 34.078125 67.484375 46.96875 67.578125 
z
M 18.890625 35.359375 
Q 18.5 28.609375 18.5 25.484375 
Q 18.5 18.75 19.796875 12.453125 
Q 21.09375 6.15625 23.34375 3.609375 
Q 24.953125 1.8125 27.15625 1.8125 
Q 29.390625 1.8125 31.140625 4.421875 
Q 32.90625 7.03125 32.90625 15.046875 
Q 32.90625 28.515625 29.640625 33.640625 
Q 27.546875 36.96875 23.96875 36.96875 
Q 22.015625 36.96875 18.890625 35.359375 
z
" id="TimesNewRomanPS-BoldMT-36"/>
     </defs>
     <g transform="translate(31.08375 19.74875)scale(0.08 -0.08)">
      <use transform="translate(0 0.335938)" xlink:href="#TimesNewRomanPS-BoldMT-d7"/>
      <use transform="translate(56.982422 0.335938)" xlink:href="#TimesNewRomanPS-BoldMT-31"/>
      <use transform="translate(106.982422 0.335938)" xlink:href="#TimesNewRomanPS-BoldMT-30"/>
      <use transform="translate(158.516406 61.695312)scale(0.7)" xlink:href="#TimesNewRomanPS-BoldMT-2212"/>
      <use transform="translate(198.404102 61.695312)scale(0.7)" xlink:href="#TimesNewRomanPS-BoldMT-36"/>
     </g>
    </g>
   </g>
  </g>
  <g id="axes_2">
   <g id="line2d_15">
    <path clip-path="url(#p3a265d2b01)" d="M 37.808381 26.658352 
L 38.723296 33.614284 
L 39.638212 55.3602 
L 40.553128 52.311657 
L 41.468044 61.264686 
L 42.382959 63.79093 
L 43.297875 73.965136 
L 44.212791 30.636102 
L 45.127707 82.064753 
L 46.042622 59.941109 
L 46.957538 78.654218 
L 47.872454 84.46706 
L 48.78737 68.043811 
L 49.702285 93.421362 
L 50.617201 80.150385 
L 51.532117 97.714404 
L 52.447033 98.001394 
L 53.361948 79.532876 
L 54.276864 74.783283 
L 55.19178 74.305533 
L 56.106695 86.549235 
L 57.021611 83.327337 
L 57.936527 58.458216 
L 58.851443 72.030164 
L 59.766358 97.93958 
L 60.681274 66.349383 
L 61.59619 93.872734 
L 62.511106 81.295485 
L 63.426021 100.310641 
L 64.340937 98.034536 
L 65.255853 103.156536 
L 66.170769 93.839846 
L 67.085684 101.183412 
L 68.0006 99.156541 
L 68.915516 99.572817 
L 69.830432 96.0386 
L 70.745347 103.607993 
L 71.660263 90.08583 
L 72.575179 89.481708 
L 73.490095 89.940891 
L 74.40501 88.30389 
L 75.319926 87.583925 
L 76.234842 94.36206 
L 77.149757 98.552957 
L 78.064673 97.953336 
L 78.979589 98.544268 
L 79.894505 103.15648 
L 80.80942 99.469739 
L 81.724336 91.661187 
L 82.639252 98.325233 
L 83.554168 99.173324 
L 84.469083 100.626245 
L 85.383999 102.850499 
L 86.298915 102.553066 
L 87.213831 98.734774 
L 88.128746 104.850398 
L 89.043662 103.623814 
L 89.958578 98.999715 
L 90.873494 103.369882 
L 91.788409 102.671371 
L 92.703325 99.941177 
L 93.618241 100.335915 
L 94.533157 98.212419 
L 95.448072 100.565733 
L 96.362988 101.513903 
L 97.277904 94.527149 
L 98.192819 102.784356 
L 99.107735 99.87042 
L 100.022651 83.597798 
L 100.937567 99.090992 
L 101.852482 99.998887 
L 102.767398 96.106187 
L 103.682314 101.079258 
L 104.59723 99.11754 
L 105.512145 104.167283 
L 106.427061 101.361493 
L 107.341977 101.895905 
L 108.256893 102.010842 
L 109.171808 103.03925 
L 110.086724 98.580156 
L 111.00164 103.669297 
L 111.916556 103.394845 
L 112.831471 99.244562 
L 113.746387 102.008295 
L 114.661303 102.038551 
L 115.576218 101.213215 
L 116.491134 104.282617 
L 117.40605 103.791933 
L 118.320966 94.848668 
L 119.235881 101.56932 
L 120.150797 101.81261 
L 121.065713 103.017598 
L 121.980629 103.706855 
L 122.895544 94.349493 
L 123.81046 103.723383 
L 124.725376 96.30841 
L 125.640292 101.516535 
L 126.555207 92.733719 
L 127.470123 95.661324 
L 128.385039 99.249062 
L 129.299955 103.324372 
L 130.21487 102.815121 
L 131.129786 99.819391 
L 132.044702 101.352549 
L 132.959618 96.302579 
L 133.874533 103.318286 
L 134.789449 93.398239 
L 135.704365 102.376994 
L 136.61928 97.855719 
L 137.534196 97.268976 
L 138.449112 97.369111 
L 139.364028 97.096471 
L 140.278943 101.423306 
L 141.193859 97.403527 
L 142.108775 90.876834 
L 143.023691 94.163346 
L 143.938606 93.28115 
L 144.853522 102.17197 
L 145.768438 101.699173 
L 146.683354 100.767051 
L 148.513185 91.107841 
L 149.428101 94.295435 
L 150.343017 95.879284 
L 151.257932 91.019027 
L 152.172848 91.339923 
L 154.00268 99.248553 
L 154.917595 102.038013 
L 155.832511 91.985112 
L 156.747427 100.275461 
L 157.662342 90.707272 
L 158.577258 93.061295 
L 159.492174 89.374441 
L 160.40709 98.136879 
L 161.322005 96.144339 
L 162.236921 100.263828 
L 163.151837 96.985156 
L 164.066753 91.168748 
L 164.981668 100.687831 
L 165.896584 84.970339 
L 166.8115 86.167997 
L 167.726416 95.364938 
L 168.641331 94.238999 
L 169.556247 93.614839 
L 170.471163 87.184914 
L 171.386079 97.32244 
L 172.300994 82.967949 
L 172.300994 82.967949 
" style="fill:none;"/>
    <defs>
     <path d="M 0 1 
C 0.265203 1 0.51958 0.894634 0.707107 0.707107 
C 0.894634 0.51958 1 0.265203 1 0 
C 1 -0.265203 0.894634 -0.51958 0.707107 -0.707107 
C 0.51958 -0.894634 0.265203 -1 0 -1 
C -0.265203 -1 -0.51958 -0.894634 -0.707107 -0.707107 
C -0.894634 -0.51958 -1 -0.265203 -1 0 
C -1 0.265203 -0.894634 0.51958 -0.707107 0.707107 
C -0.51958 0.894634 -0.265203 1 0 1 
z
" id="m18d46f6b53"/>
    </defs>
    <g clip-path="url(#p3a265d2b01)">
     <use style="fill:#ff7f0e;" x="37.808381" xlink:href="#m18d46f6b53" y="26.658352"/>
     <use style="fill:#ff7f0e;" x="38.723296" xlink:href="#m18d46f6b53" y="33.614284"/>
     <use style="fill:#ff7f0e;" x="39.638212" xlink:href="#m18d46f6b53" y="55.3602"/>
     <use style="fill:#ff7f0e;" x="40.553128" xlink:href="#m18d46f6b53" y="52.311657"/>
     <use style="fill:#ff7f0e;" x="41.468044" xlink:href="#m18d46f6b53" y="61.264686"/>
     <use style="fill:#ff7f0e;" x="42.382959" xlink:href="#m18d46f6b53" y="63.79093"/>
     <use style="fill:#ff7f0e;" x="43.297875" xlink:href="#m18d46f6b53" y="73.965136"/>
     <use style="fill:#ff7f0e;" x="44.212791" xlink:href="#m18d46f6b53" y="30.636102"/>
     <use style="fill:#ff7f0e;" x="45.127707" xlink:href="#m18d46f6b53" y="82.064753"/>
     <use style="fill:#ff7f0e;" x="46.042622" xlink:href="#m18d46f6b53" y="59.941109"/>
     <use style="fill:#ff7f0e;" x="46.957538" xlink:href="#m18d46f6b53" y="78.654218"/>
     <use style="fill:#ff7f0e;" x="47.872454" xlink:href="#m18d46f6b53" y="84.46706"/>
     <use style="fill:#ff7f0e;" x="48.78737" xlink:href="#m18d46f6b53" y="68.043811"/>
     <use style="fill:#ff7f0e;" x="49.702285" xlink:href="#m18d46f6b53" y="93.421362"/>
     <use style="fill:#ff7f0e;" x="50.617201" xlink:href="#m18d46f6b53" y="80.150385"/>
     <use style="fill:#ff7f0e;" x="51.532117" xlink:href="#m18d46f6b53" y="97.714404"/>
     <use style="fill:#ff7f0e;" x="52.447033" xlink:href="#m18d46f6b53" y="98.001394"/>
     <use style="fill:#ff7f0e;" x="53.361948" xlink:href="#m18d46f6b53" y="79.532876"/>
     <use style="fill:#ff7f0e;" x="54.276864" xlink:href="#m18d46f6b53" y="74.783283"/>
     <use style="fill:#ff7f0e;" x="55.19178" xlink:href="#m18d46f6b53" y="74.305533"/>
     <use style="fill:#ff7f0e;" x="56.106695" xlink:href="#m18d46f6b53" y="86.549235"/>
     <use style="fill:#ff7f0e;" x="57.021611" xlink:href="#m18d46f6b53" y="83.327337"/>
     <use style="fill:#ff7f0e;" x="57.936527" xlink:href="#m18d46f6b53" y="58.458216"/>
     <use style="fill:#ff7f0e;" x="58.851443" xlink:href="#m18d46f6b53" y="72.030164"/>
     <use style="fill:#ff7f0e;" x="59.766358" xlink:href="#m18d46f6b53" y="97.93958"/>
     <use style="fill:#ff7f0e;" x="60.681274" xlink:href="#m18d46f6b53" y="66.349383"/>
     <use style="fill:#ff7f0e;" x="61.59619" xlink:href="#m18d46f6b53" y="93.872734"/>
     <use style="fill:#ff7f0e;" x="62.511106" xlink:href="#m18d46f6b53" y="81.295485"/>
     <use style="fill:#ff7f0e;" x="63.426021" xlink:href="#m18d46f6b53" y="100.310641"/>
     <use style="fill:#ff7f0e;" x="64.340937" xlink:href="#m18d46f6b53" y="98.034536"/>
     <use style="fill:#ff7f0e;" x="65.255853" xlink:href="#m18d46f6b53" y="103.156536"/>
     <use style="fill:#ff7f0e;" x="66.170769" xlink:href="#m18d46f6b53" y="93.839846"/>
     <use style="fill:#ff7f0e;" x="67.085684" xlink:href="#m18d46f6b53" y="101.183412"/>
     <use style="fill:#ff7f0e;" x="68.0006" xlink:href="#m18d46f6b53" y="99.156541"/>
     <use style="fill:#ff7f0e;" x="68.915516" xlink:href="#m18d46f6b53" y="99.572817"/>
     <use style="fill:#ff7f0e;" x="69.830432" xlink:href="#m18d46f6b53" y="96.0386"/>
     <use style="fill:#ff7f0e;" x="70.745347" xlink:href="#m18d46f6b53" y="103.607993"/>
     <use style="fill:#ff7f0e;" x="71.660263" xlink:href="#m18d46f6b53" y="90.08583"/>
     <use style="fill:#ff7f0e;" x="72.575179" xlink:href="#m18d46f6b53" y="89.481708"/>
     <use style="fill:#ff7f0e;" x="73.490095" xlink:href="#m18d46f6b53" y="89.940891"/>
     <use style="fill:#ff7f0e;" x="74.40501" xlink:href="#m18d46f6b53" y="88.30389"/>
     <use style="fill:#ff7f0e;" x="75.319926" xlink:href="#m18d46f6b53" y="87.583925"/>
     <use style="fill:#ff7f0e;" x="76.234842" xlink:href="#m18d46f6b53" y="94.36206"/>
     <use style="fill:#ff7f0e;" x="77.149757" xlink:href="#m18d46f6b53" y="98.552957"/>
     <use style="fill:#ff7f0e;" x="78.064673" xlink:href="#m18d46f6b53" y="97.953336"/>
     <use style="fill:#ff7f0e;" x="78.979589" xlink:href="#m18d46f6b53" y="98.544268"/>
     <use style="fill:#ff7f0e;" x="79.894505" xlink:href="#m18d46f6b53" y="103.15648"/>
     <use style="fill:#ff7f0e;" x="80.80942" xlink:href="#m18d46f6b53" y="99.469739"/>
     <use style="fill:#ff7f0e;" x="81.724336" xlink:href="#m18d46f6b53" y="91.661187"/>
     <use style="fill:#ff7f0e;" x="82.639252" xlink:href="#m18d46f6b53" y="98.325233"/>
     <use style="fill:#ff7f0e;" x="83.554168" xlink:href="#m18d46f6b53" y="99.173324"/>
     <use style="fill:#ff7f0e;" x="84.469083" xlink:href="#m18d46f6b53" y="100.626245"/>
     <use style="fill:#ff7f0e;" x="85.383999" xlink:href="#m18d46f6b53" y="102.850499"/>
     <use style="fill:#ff7f0e;" x="86.298915" xlink:href="#m18d46f6b53" y="102.553066"/>
     <use style="fill:#ff7f0e;" x="87.213831" xlink:href="#m18d46f6b53" y="98.734774"/>
     <use style="fill:#ff7f0e;" x="88.128746" xlink:href="#m18d46f6b53" y="104.850398"/>
     <use style="fill:#ff7f0e;" x="89.043662" xlink:href="#m18d46f6b53" y="103.623814"/>
     <use style="fill:#ff7f0e;" x="89.958578" xlink:href="#m18d46f6b53" y="98.999715"/>
     <use style="fill:#ff7f0e;" x="90.873494" xlink:href="#m18d46f6b53" y="103.369882"/>
     <use style="fill:#ff7f0e;" x="91.788409" xlink:href="#m18d46f6b53" y="102.671371"/>
     <use style="fill:#ff7f0e;" x="92.703325" xlink:href="#m18d46f6b53" y="99.941177"/>
     <use style="fill:#ff7f0e;" x="93.618241" xlink:href="#m18d46f6b53" y="100.335915"/>
     <use style="fill:#ff7f0e;" x="94.533157" xlink:href="#m18d46f6b53" y="98.212419"/>
     <use style="fill:#ff7f0e;" x="95.448072" xlink:href="#m18d46f6b53" y="100.565733"/>
     <use style="fill:#ff7f0e;" x="96.362988" xlink:href="#m18d46f6b53" y="101.513903"/>
     <use style="fill:#ff7f0e;" x="97.277904" xlink:href="#m18d46f6b53" y="94.527149"/>
     <use style="fill:#ff7f0e;" x="98.192819" xlink:href="#m18d46f6b53" y="102.784356"/>
     <use style="fill:#ff7f0e;" x="99.107735" xlink:href="#m18d46f6b53" y="99.87042"/>
     <use style="fill:#ff7f0e;" x="100.022651" xlink:href="#m18d46f6b53" y="83.597798"/>
     <use style="fill:#ff7f0e;" x="100.937567" xlink:href="#m18d46f6b53" y="99.090992"/>
     <use style="fill:#ff7f0e;" x="101.852482" xlink:href="#m18d46f6b53" y="99.998887"/>
     <use style="fill:#ff7f0e;" x="102.767398" xlink:href="#m18d46f6b53" y="96.106187"/>
     <use style="fill:#ff7f0e;" x="103.682314" xlink:href="#m18d46f6b53" y="101.079258"/>
     <use style="fill:#ff7f0e;" x="104.59723" xlink:href="#m18d46f6b53" y="99.11754"/>
     <use style="fill:#ff7f0e;" x="105.512145" xlink:href="#m18d46f6b53" y="104.167283"/>
     <use style="fill:#ff7f0e;" x="106.427061" xlink:href="#m18d46f6b53" y="101.361493"/>
     <use style="fill:#ff7f0e;" x="107.341977" xlink:href="#m18d46f6b53" y="101.895905"/>
     <use style="fill:#ff7f0e;" x="108.256893" xlink:href="#m18d46f6b53" y="102.010842"/>
     <use style="fill:#ff7f0e;" x="109.171808" xlink:href="#m18d46f6b53" y="103.03925"/>
     <use style="fill:#ff7f0e;" x="110.086724" xlink:href="#m18d46f6b53" y="98.580156"/>
     <use style="fill:#ff7f0e;" x="111.00164" xlink:href="#m18d46f6b53" y="103.669297"/>
     <use style="fill:#ff7f0e;" x="111.916556" xlink:href="#m18d46f6b53" y="103.394845"/>
     <use style="fill:#ff7f0e;" x="112.831471" xlink:href="#m18d46f6b53" y="99.244562"/>
     <use style="fill:#ff7f0e;" x="113.746387" xlink:href="#m18d46f6b53" y="102.008295"/>
     <use style="fill:#ff7f0e;" x="114.661303" xlink:href="#m18d46f6b53" y="102.038551"/>
     <use style="fill:#ff7f0e;" x="115.576218" xlink:href="#m18d46f6b53" y="101.213215"/>
     <use style="fill:#ff7f0e;" x="116.491134" xlink:href="#m18d46f6b53" y="104.282617"/>
     <use style="fill:#ff7f0e;" x="117.40605" xlink:href="#m18d46f6b53" y="103.791933"/>
     <use style="fill:#ff7f0e;" x="118.320966" xlink:href="#m18d46f6b53" y="94.848668"/>
     <use style="fill:#ff7f0e;" x="119.235881" xlink:href="#m18d46f6b53" y="101.56932"/>
     <use style="fill:#ff7f0e;" x="120.150797" xlink:href="#m18d46f6b53" y="101.81261"/>
     <use style="fill:#ff7f0e;" x="121.065713" xlink:href="#m18d46f6b53" y="103.017598"/>
     <use style="fill:#ff7f0e;" x="121.980629" xlink:href="#m18d46f6b53" y="103.706855"/>
     <use style="fill:#ff7f0e;" x="122.895544" xlink:href="#m18d46f6b53" y="94.349493"/>
     <use style="fill:#ff7f0e;" x="123.81046" xlink:href="#m18d46f6b53" y="103.723383"/>
     <use style="fill:#ff7f0e;" x="124.725376" xlink:href="#m18d46f6b53" y="96.30841"/>
     <use style="fill:#ff7f0e;" x="125.640292" xlink:href="#m18d46f6b53" y="101.516535"/>
     <use style="fill:#ff7f0e;" x="126.555207" xlink:href="#m18d46f6b53" y="92.733719"/>
     <use style="fill:#ff7f0e;" x="127.470123" xlink:href="#m18d46f6b53" y="95.661324"/>
     <use style="fill:#ff7f0e;" x="128.385039" xlink:href="#m18d46f6b53" y="99.249062"/>
     <use style="fill:#ff7f0e;" x="129.299955" xlink:href="#m18d46f6b53" y="103.324372"/>
     <use style="fill:#ff7f0e;" x="130.21487" xlink:href="#m18d46f6b53" y="102.815121"/>
     <use style="fill:#ff7f0e;" x="131.129786" xlink:href="#m18d46f6b53" y="99.819391"/>
     <use style="fill:#ff7f0e;" x="132.044702" xlink:href="#m18d46f6b53" y="101.352549"/>
     <use style="fill:#ff7f0e;" x="132.959618" xlink:href="#m18d46f6b53" y="96.302579"/>
     <use style="fill:#ff7f0e;" x="133.874533" xlink:href="#m18d46f6b53" y="103.318286"/>
     <use style="fill:#ff7f0e;" x="134.789449" xlink:href="#m18d46f6b53" y="93.398239"/>
     <use style="fill:#ff7f0e;" x="135.704365" xlink:href="#m18d46f6b53" y="102.376994"/>
     <use style="fill:#ff7f0e;" x="136.61928" xlink:href="#m18d46f6b53" y="97.855719"/>
     <use style="fill:#ff7f0e;" x="137.534196" xlink:href="#m18d46f6b53" y="97.268976"/>
     <use style="fill:#ff7f0e;" x="138.449112" xlink:href="#m18d46f6b53" y="97.369111"/>
     <use style="fill:#ff7f0e;" x="139.364028" xlink:href="#m18d46f6b53" y="97.096471"/>
     <use style="fill:#ff7f0e;" x="140.278943" xlink:href="#m18d46f6b53" y="101.423306"/>
     <use style="fill:#ff7f0e;" x="141.193859" xlink:href="#m18d46f6b53" y="97.403527"/>
     <use style="fill:#ff7f0e;" x="142.108775" xlink:href="#m18d46f6b53" y="90.876834"/>
     <use style="fill:#ff7f0e;" x="143.023691" xlink:href="#m18d46f6b53" y="94.163346"/>
     <use style="fill:#ff7f0e;" x="143.938606" xlink:href="#m18d46f6b53" y="93.28115"/>
     <use style="fill:#ff7f0e;" x="144.853522" xlink:href="#m18d46f6b53" y="102.17197"/>
     <use style="fill:#ff7f0e;" x="145.768438" xlink:href="#m18d46f6b53" y="101.699173"/>
     <use style="fill:#ff7f0e;" x="146.683354" xlink:href="#m18d46f6b53" y="100.767051"/>
     <use style="fill:#ff7f0e;" x="147.598269" xlink:href="#m18d46f6b53" y="96.055157"/>
     <use style="fill:#ff7f0e;" x="148.513185" xlink:href="#m18d46f6b53" y="91.107841"/>
     <use style="fill:#ff7f0e;" x="149.428101" xlink:href="#m18d46f6b53" y="94.295435"/>
     <use style="fill:#ff7f0e;" x="150.343017" xlink:href="#m18d46f6b53" y="95.879284"/>
     <use style="fill:#ff7f0e;" x="151.257932" xlink:href="#m18d46f6b53" y="91.019027"/>
     <use style="fill:#ff7f0e;" x="152.172848" xlink:href="#m18d46f6b53" y="91.339923"/>
     <use style="fill:#ff7f0e;" x="153.087764" xlink:href="#m18d46f6b53" y="95.41444"/>
     <use style="fill:#ff7f0e;" x="154.00268" xlink:href="#m18d46f6b53" y="99.248553"/>
     <use style="fill:#ff7f0e;" x="154.917595" xlink:href="#m18d46f6b53" y="102.038013"/>
     <use style="fill:#ff7f0e;" x="155.832511" xlink:href="#m18d46f6b53" y="91.985112"/>
     <use style="fill:#ff7f0e;" x="156.747427" xlink:href="#m18d46f6b53" y="100.275461"/>
     <use style="fill:#ff7f0e;" x="157.662342" xlink:href="#m18d46f6b53" y="90.707272"/>
     <use style="fill:#ff7f0e;" x="158.577258" xlink:href="#m18d46f6b53" y="93.061295"/>
     <use style="fill:#ff7f0e;" x="159.492174" xlink:href="#m18d46f6b53" y="89.374441"/>
     <use style="fill:#ff7f0e;" x="160.40709" xlink:href="#m18d46f6b53" y="98.136879"/>
     <use style="fill:#ff7f0e;" x="161.322005" xlink:href="#m18d46f6b53" y="96.144339"/>
     <use style="fill:#ff7f0e;" x="162.236921" xlink:href="#m18d46f6b53" y="100.263828"/>
     <use style="fill:#ff7f0e;" x="163.151837" xlink:href="#m18d46f6b53" y="96.985156"/>
     <use style="fill:#ff7f0e;" x="164.066753" xlink:href="#m18d46f6b53" y="91.168748"/>
     <use style="fill:#ff7f0e;" x="164.981668" xlink:href="#m18d46f6b53" y="100.687831"/>
     <use style="fill:#ff7f0e;" x="165.896584" xlink:href="#m18d46f6b53" y="84.970339"/>
     <use style="fill:#ff7f0e;" x="166.8115" xlink:href="#m18d46f6b53" y="86.167997"/>
     <use style="fill:#ff7f0e;" x="167.726416" xlink:href="#m18d46f6b53" y="95.364938"/>
     <use style="fill:#ff7f0e;" x="168.641331" xlink:href="#m18d46f6b53" y="94.238999"/>
     <use style="fill:#ff7f0e;" x="169.556247" xlink:href="#m18d46f6b53" y="93.614839"/>
     <use style="fill:#ff7f0e;" x="170.471163" xlink:href="#m18d46f6b53" y="87.184914"/>
     <use style="fill:#ff7f0e;" x="171.386079" xlink:href="#m18d46f6b53" y="97.32244"/>
     <use style="fill:#ff7f0e;" x="172.300994" xlink:href="#m18d46f6b53" y="82.967949"/>
    </g>
   </g>
   <g id="patch_7">
    <path d="M 31.08375 108.76 
L 31.08375 22.74875 
" style="fill:none;stroke:#000000;stroke-linecap:square;stroke-linejoin:miter;"/>
   </g>
   <g id="patch_8">
    <path d="M 179.025625 108.76 
L 179.025625 22.74875 
" style="fill:none;stroke:#000000;stroke-linecap:square;stroke-linejoin:miter;"/>
   </g>
   <g id="patch_9">
    <path d="M 31.08375 108.76 
L 179.025625 108.76 
" style="fill:none;stroke:#000000;stroke-linecap:square;stroke-linejoin:miter;"/>
   </g>
   <g id="patch_10">
    <path d="M 31.08375 22.74875 
L 179.025625 22.74875 
" style="fill:none;stroke:#000000;stroke-linecap:square;stroke-linejoin:miter;"/>
   </g>
   <g id="matplotlib.axis_3">
    <g id="ytick_6">
     <g id="line2d_16">
      <defs>
       <path d="M 0 0 
L -6 0 
" id="m0378949d85" style="stroke:#000000;"/>
      </defs>
      <g>
       <use style="stroke:#000000;" x="179.025625" xlink:href="#m0378949d85" y="82.30943"/>
      </g>
     </g>
     <g id="text_13">
      <!-- $\mathdefault{0.5}$ -->
      <defs>
       <path d="M 12.5 15.046875 
Q 15.921875 15.046875 18.28125 12.640625 
Q 20.65625 10.25 20.65625 6.890625 
Q 20.65625 3.515625 18.265625 1.140625 
Q 15.875 -1.21875 12.5 -1.21875 
Q 9.125 -1.21875 6.75 1.140625 
Q 4.390625 3.515625 4.390625 6.890625 
Q 4.390625 10.25 6.75 12.640625 
Q 9.125 15.046875 12.5 15.046875 
z
" id="TimesNewRomanPS-BoldMT-2e"/>
      </defs>
      <g transform="translate(184.625625 84.95818)scale(0.08 -0.08)">
       <use transform="translate(0 0.421875)" xlink:href="#TimesNewRomanPS-BoldMT-30"/>
       <use transform="translate(50 0.421875)" xlink:href="#TimesNewRomanPS-BoldMT-2e"/>
       <use transform="translate(75 0.421875)" xlink:href="#TimesNewRomanPS-BoldMT-35"/>
      </g>
     </g>
    </g>
    <g id="ytick_7">
     <g id="line2d_17">
      <g>
       <use style="stroke:#000000;" x="179.025625" xlink:href="#m0378949d85" y="54.006707"/>
      </g>
     </g>
     <g id="text_14">
      <!-- $\mathdefault{1.0}$ -->
      <g transform="translate(184.625625 56.655457)scale(0.08 -0.08)">
       <use transform="translate(0 0.421875)" xlink:href="#TimesNewRomanPS-BoldMT-31"/>
       <use transform="translate(50 0.421875)" xlink:href="#TimesNewRomanPS-BoldMT-2e"/>
       <use transform="translate(75 0.421875)" xlink:href="#TimesNewRomanPS-BoldMT-30"/>
      </g>
     </g>
    </g>
    <g id="ytick_8">
     <g id="line2d_18">
      <g>
       <use style="stroke:#000000;" x="179.025625" xlink:href="#m0378949d85" y="25.703984"/>
      </g>
     </g>
     <g id="text_15">
      <!-- $\mathdefault{1.5}$ -->
      <g transform="translate(184.625625 28.352734)scale(0.08 -0.08)">
       <use transform="translate(0 0.421875)" xlink:href="#TimesNewRomanPS-BoldMT-31"/>
       <use transform="translate(50 0.421875)" xlink:href="#TimesNewRomanPS-BoldMT-2e"/>
       <use transform="translate(75 0.421875)" xlink:href="#TimesNewRomanPS-BoldMT-35"/>
      </g>
     </g>
    </g>
    <g id="text_16">
     <!-- Off-Current [A] -->
     <g transform="translate(202.571875 107.236875)rotate(-90)scale(0.12 -0.12)">
      <use xlink:href="#TimesNewRomanPS-BoldMT-4f"/>
      <use x="77.783203" xlink:href="#TimesNewRomanPS-BoldMT-66"/>
      <use x="111.083984" xlink:href="#TimesNewRomanPS-BoldMT-66"/>
      <use x="144.384766" xlink:href="#TimesNewRomanPS-BoldMT-2d"/>
      <use x="177.685547" xlink:href="#TimesNewRomanPS-BoldMT-43"/>
      <use x="249.902344" xlink:href="#TimesNewRomanPS-BoldMT-75"/>
      <use x="305.517578" xlink:href="#TimesNewRomanPS-BoldMT-72"/>
      <use x="349.902344" xlink:href="#TimesNewRomanPS-BoldMT-72"/>
      <use x="394.271484" xlink:href="#TimesNewRomanPS-BoldMT-65"/>
      <use x="438.65625" xlink:href="#TimesNewRomanPS-BoldMT-6e"/>
      <use x="494.271484" xlink:href="#TimesNewRomanPS-BoldMT-74"/>
      <use x="527.572266" xlink:href="#TimesNewRomanPS-BoldMT-20"/>
      <use x="552.572266" xlink:href="#TimesNewRomanPS-BoldMT-5b"/>
      <use x="585.873047" xlink:href="#TimesNewRomanPS-BoldMT-41"/>
      <use x="658.089844" xlink:href="#TimesNewRomanPS-BoldMT-5d"/>
     </g>
    </g>
    <g id="text_17">
     <!-- $\times\mathdefault{10^{9}}\mathdefault{}$ -->
     <defs>
      <path d="M 3.078125 -1.375 
L 3.078125 0 
Q 11.1875 1.859375 16.828125 5.46875 
Q 22.46875 9.078125 25.75 14.40625 
Q 29.046875 19.734375 30.375 26.65625 
Q 27.34375 25.09375 25.21875 24.484375 
Q 23.09375 23.875 20.75 23.875 
Q 13.234375 23.875 8.21875 29.296875 
Q 3.21875 34.71875 3.21875 44.140625 
Q 3.21875 50.6875 5.921875 56.125 
Q 8.640625 61.578125 13.671875 64.578125 
Q 18.703125 67.578125 24.125 67.578125 
Q 29.9375 67.578125 35.109375 64.25 
Q 40.28125 60.9375 43.359375 54.640625 
Q 46.4375 48.34375 46.4375 40.28125 
Q 46.4375 29.828125 41.421875 20.25 
Q 36.421875 10.6875 26.515625 4.90625 
Q 16.609375 -0.875 3.078125 -1.375 
z
M 31.109375 30.765625 
Q 31.59375 36.234375 31.59375 40.375 
Q 31.59375 49.265625 29.546875 56.9375 
Q 28.375 61.1875 26.078125 63.1875 
Q 24.859375 64.265625 22.90625 64.265625 
Q 20.453125 64.265625 19.09375 62.15625 
Q 17.1875 59.28125 17.1875 51.171875 
Q 17.1875 37.640625 20.40625 32.515625 
Q 22.515625 29.203125 26.078125 29.203125 
Q 27.984375 29.203125 31.109375 30.765625 
z
" id="TimesNewRomanPS-BoldMT-39"/>
     </defs>
     <g transform="translate(159.985625 19.74875)scale(0.08 -0.08)">
      <use transform="translate(0 0.335938)" xlink:href="#TimesNewRomanPS-BoldMT-d7"/>
      <use transform="translate(56.982422 0.335938)" xlink:href="#TimesNewRomanPS-BoldMT-31"/>
      <use transform="translate(106.982422 0.335938)" xlink:href="#TimesNewRomanPS-BoldMT-30"/>
      <use transform="translate(158.516406 61.695312)scale(0.7)" xlink:href="#TimesNewRomanPS-BoldMT-2212"/>
      <use transform="translate(198.404102 61.695312)scale(0.7)" xlink:href="#TimesNewRomanPS-BoldMT-39"/>
     </g>
    </g>
   </g>
   <g id="legend_1">
    <g id="patch_11">
     <path d="M 36.68375 104.76 
L 107.6025 104.76 
Q 109.2025 104.76 109.2025 103.16 
L 109.2025 81.3375 
Q 109.2025 79.7375 107.6025 79.7375 
L 36.68375 79.7375 
Q 35.08375 79.7375 35.08375 81.3375 
L 35.08375 103.16 
Q 35.08375 104.76 36.68375 104.76 
z
" style="fill:#ffffff;opacity:0.8;stroke:#cccccc;stroke-linejoin:miter;stroke-width:0.24;"/>
    </g>
    <g id="line2d_19">
     <path d="M 38.28375 85.7375 
L 54.28375 85.7375 
" style="fill:none;"/>
    </g>
    <g id="line2d_20">
     <g>
      <use style="fill:#d62728;" x="46.28375" xlink:href="#mc1d3e936c0" y="85.7375"/>
     </g>
    </g>
    <g id="text_18">
     <!-- On-Currents -->
     <defs>
      <path d="M 32.234375 46.921875 
L 32.953125 31.34375 
L 31.296875 31.34375 
Q 28.328125 38.28125 25.125 40.8125 
Q 21.921875 43.359375 18.75 43.359375 
Q 16.75 43.359375 15.328125 42.015625 
Q 13.921875 40.671875 13.921875 38.921875 
Q 13.921875 37.59375 14.890625 36.375 
Q 16.453125 34.375 23.625 29.515625 
Q 30.8125 24.65625 33.078125 21.265625 
Q 35.359375 17.875 35.359375 13.671875 
Q 35.359375 9.859375 33.453125 6.203125 
Q 31.546875 2.546875 28.078125 0.578125 
Q 24.609375 -1.375 20.40625 -1.375 
Q 17.140625 -1.375 11.671875 0.6875 
Q 10.203125 1.21875 9.671875 1.21875 
Q 8.0625 1.21875 6.984375 -1.21875 
L 5.375 -1.21875 
L 4.59375 15.1875 
L 6.25 15.1875 
Q 8.453125 8.734375 12.28125 5.515625 
Q 16.109375 2.296875 19.53125 2.296875 
Q 21.875 2.296875 23.359375 3.734375 
Q 24.859375 5.171875 24.859375 7.234375 
Q 24.859375 9.578125 23.390625 11.28125 
Q 21.921875 12.984375 16.84375 16.453125 
Q 9.375 21.625 7.171875 24.359375 
Q 3.953125 28.375 3.953125 33.203125 
Q 3.953125 38.484375 7.59375 42.75 
Q 11.234375 47.015625 18.109375 47.015625 
Q 21.828125 47.015625 25.296875 45.21875 
Q 26.609375 44.484375 27.4375 44.484375 
Q 28.328125 44.484375 28.859375 44.84375 
Q 29.390625 45.21875 30.5625 46.921875 
z
" id="TimesNewRomanPS-BoldMT-73"/>
     </defs>
     <g transform="translate(60.68375 88.5375)scale(0.08 -0.08)">
      <use xlink:href="#TimesNewRomanPS-BoldMT-4f"/>
      <use x="77.783203" xlink:href="#TimesNewRomanPS-BoldMT-6e"/>
      <use x="133.398438" xlink:href="#TimesNewRomanPS-BoldMT-2d"/>
      <use x="166.699219" xlink:href="#TimesNewRomanPS-BoldMT-43"/>
      <use x="238.916016" xlink:href="#TimesNewRomanPS-BoldMT-75"/>
      <use x="294.53125" xlink:href="#TimesNewRomanPS-BoldMT-72"/>
      <use x="338.916016" xlink:href="#TimesNewRomanPS-BoldMT-72"/>
      <use x="383.285156" xlink:href="#TimesNewRomanPS-BoldMT-65"/>
      <use x="427.669922" xlink:href="#TimesNewRomanPS-BoldMT-6e"/>
      <use x="483.285156" xlink:href="#TimesNewRomanPS-BoldMT-74"/>
      <use x="516.585938" xlink:href="#TimesNewRomanPS-BoldMT-73"/>
     </g>
    </g>
    <g id="line2d_21">
     <path d="M 38.28375 97.04875 
L 54.28375 97.04875 
" style="fill:none;"/>
    </g>
    <g id="line2d_22">
     <g>
      <use style="fill:#ff7f0e;" x="46.28375" xlink:href="#m18d46f6b53" y="97.04875"/>
     </g>
    </g>
    <g id="text_19">
     <!-- Off-Currents -->
     <g transform="translate(60.68375 99.84875)scale(0.08 -0.08)">
      <use xlink:href="#TimesNewRomanPS-BoldMT-4f"/>
      <use x="77.783203" xlink:href="#TimesNewRomanPS-BoldMT-66"/>
      <use x="111.083984" xlink:href="#TimesNewRomanPS-BoldMT-66"/>
      <use x="144.384766" xlink:href="#TimesNewRomanPS-BoldMT-2d"/>
      <use x="177.685547" xlink:href="#TimesNewRomanPS-BoldMT-43"/>
      <use x="249.902344" xlink:href="#TimesNewRomanPS-BoldMT-75"/>
      <use x="305.517578" xlink:href="#TimesNewRomanPS-BoldMT-72"/>
      <use x="349.902344" xlink:href="#TimesNewRomanPS-BoldMT-72"/>
      <use x="394.271484" xlink:href="#TimesNewRomanPS-BoldMT-65"/>
      <use x="438.65625" xlink:href="#TimesNewRomanPS-BoldMT-6e"/>
      <use x="494.271484" xlink:href="#TimesNewRomanPS-BoldMT-74"/>
      <use x="527.572266" xlink:href="#TimesNewRomanPS-BoldMT-73"/>
     </g>
    </g>
   </g>
  </g>
  <g id="text_20">
   <!-- C127E:15-16, Tests 2-11 -->
   <defs>
    <path d="M 17.71875 -1.375 
L 35.75 53.265625 
L 22.015625 53.265625 
Q 13.96875 53.265625 9.90625 51.171875 
Q 7.078125 49.703125 5.21875 45.65625 
L 3.375 45.65625 
L 8.15625 66.21875 
L 47.609375 66.21875 
L 25.390625 -1.375 
z
" id="TimesNewRomanPS-BoldMT-37"/>
    <path d="M 27.25 62.40625 
L 27.25 35.453125 
L 28.5625 35.453125 
Q 34.859375 35.453125 37.6875 39.40625 
Q 40.53125 43.359375 41.3125 51.078125 
L 43.171875 51.078125 
L 43.171875 16.40625 
L 41.3125 16.40625 
Q 40.71875 22.078125 38.84375 25.6875 
Q 36.96875 29.296875 34.46875 30.53125 
Q 31.984375 31.78125 27.25 31.78125 
L 27.25 13.140625 
Q 27.25 7.671875 27.703125 6.4375 
Q 28.171875 5.21875 29.4375 4.4375 
Q 30.71875 3.65625 33.546875 3.65625 
L 37.5 3.65625 
Q 46.78125 3.65625 52.359375 7.953125 
Q 57.953125 12.25 60.40625 21.046875 
L 62.203125 21.046875 
L 59.234375 0 
L 2 0 
L 2 1.8125 
L 4.203125 1.8125 
Q 7.078125 1.8125 8.84375 2.828125 
Q 10.109375 3.515625 10.796875 5.171875 
Q 11.328125 6.34375 11.328125 11.328125 
L 11.328125 54.890625 
Q 11.328125 59.375 11.078125 60.40625 
Q 10.59375 62.109375 9.28125 63.03125 
Q 7.421875 64.40625 4.203125 64.40625 
L 2 64.40625 
L 2 66.21875 
L 57.421875 66.21875 
L 57.421875 46.625 
L 55.5625 46.625 
Q 54.15625 53.8125 51.59375 56.9375 
Q 49.03125 60.0625 44.34375 61.53125 
Q 41.609375 62.40625 34.078125 62.40625 
z
" id="TimesNewRomanPS-BoldMT-45"/>
    <path d="M 16.703125 46.96875 
Q 20.0625 46.96875 22.4375 44.59375 
Q 24.8125 42.234375 24.8125 38.875 
Q 24.8125 35.5 22.4375 33.125 
Q 20.0625 30.765625 16.703125 30.765625 
Q 13.328125 30.765625 10.953125 33.125 
Q 8.59375 35.5 8.59375 38.875 
Q 8.59375 42.234375 10.953125 44.59375 
Q 13.328125 46.96875 16.703125 46.96875 
z
M 16.65625 15.046875 
Q 20.0625 15.046875 22.4375 12.640625 
Q 24.8125 10.25 24.8125 6.890625 
Q 24.8125 3.515625 22.40625 1.140625 
Q 20.015625 -1.21875 16.65625 -1.21875 
Q 13.28125 -1.21875 10.90625 1.140625 
Q 8.546875 3.515625 8.546875 6.890625 
Q 8.546875 10.25 10.90625 12.640625 
Q 13.28125 15.046875 16.65625 15.046875 
z
" id="TimesNewRomanPS-BoldMT-3a"/>
    <path d="M 4.984375 -17.53125 
L 4.984375 -15.375 
Q 10.640625 -12.9375 13.203125 -9.046875 
Q 15.765625 -5.171875 15.765625 -1.125 
Q 15.765625 -0.296875 15.4375 0.140625 
Q 15.09375 0.53125 14.75 0.53125 
Q 14.453125 0.53125 13.875 0.203125 
Q 12.453125 -0.640625 10.359375 -0.640625 
Q 7.46875 -0.640625 5.34375 1.609375 
Q 3.21875 3.859375 3.21875 6.890625 
Q 3.21875 10.109375 5.65625 12.546875 
Q 8.109375 14.984375 11.578125 14.984375 
Q 15.765625 14.984375 18.75 11.734375 
Q 21.734375 8.5 21.734375 2.828125 
Q 21.734375 -4.15625 17.5 -9.5625 
Q 13.28125 -14.984375 4.984375 -17.53125 
z
" id="TimesNewRomanPS-BoldMT-2c"/>
   </defs>
   <g transform="translate(66.5675 8.1775)scale(0.08 -0.08)">
    <use xlink:href="#TimesNewRomanPS-BoldMT-43"/>
    <use x="72.216797" xlink:href="#TimesNewRomanPS-BoldMT-31"/>
    <use x="122.216797" xlink:href="#TimesNewRomanPS-BoldMT-32"/>
    <use x="172.216797" xlink:href="#TimesNewRomanPS-BoldMT-37"/>
    <use x="222.216797" xlink:href="#TimesNewRomanPS-BoldMT-45"/>
    <use x="288.916016" xlink:href="#TimesNewRomanPS-BoldMT-3a"/>
    <use x="322.216797" xlink:href="#TimesNewRomanPS-BoldMT-31"/>
    <use x="372.216797" xlink:href="#TimesNewRomanPS-BoldMT-35"/>
    <use x="422.216797" xlink:href="#TimesNewRomanPS-BoldMT-2d"/>
    <use x="455.517578" xlink:href="#TimesNewRomanPS-BoldMT-31"/>
    <use x="505.517578" xlink:href="#TimesNewRomanPS-BoldMT-36"/>
    <use x="555.517578" xlink:href="#TimesNewRomanPS-BoldMT-2c"/>
    <use x="580.517578" xlink:href="#TimesNewRomanPS-BoldMT-20"/>
    <use x="605.501953" xlink:href="#TimesNewRomanPS-BoldMT-54"/>
    <use x="672.060547" xlink:href="#TimesNewRomanPS-BoldMT-65"/>
    <use x="716.445312" xlink:href="#TimesNewRomanPS-BoldMT-73"/>
    <use x="755.361328" xlink:href="#TimesNewRomanPS-BoldMT-74"/>
    <use x="788.662109" xlink:href="#TimesNewRomanPS-BoldMT-73"/>
    <use x="827.578125" xlink:href="#TimesNewRomanPS-BoldMT-20"/>
    <use x="852.578125" xlink:href="#TimesNewRomanPS-BoldMT-32"/>
    <use x="902.578125" xlink:href="#TimesNewRomanPS-BoldMT-2d"/>
    <use x="935.878906" xlink:href="#TimesNewRomanPS-BoldMT-31"/>
    <use x="985.800781" xlink:href="#TimesNewRomanPS-BoldMT-31"/>
   </g>
  </g>
 </g>
 <defs>
  <clipPath id="p3a265d2b01">
   <rect height="86.01125" width="147.941875" x="31.08375" y="22.74875"/>
  </clipPath>
 </defs>
</svg>
